<svg width="13" height="54" viewBox="0 0 13 54" fill="none" xmlns="http://www.w3.org/2000/svg">
<path d="M2.25027 39.5085C2.71417 41.1359 3.17728 42.7631 3.64117 44.3904C3.69239 44.5684 3.73683 44.7498 3.80309 44.9221C4.11631 45.7419 4.02763 45.7912 4.88185 45.2487C5.45822 44.8827 5.99496 44.4427 6.56932 44.0652C6.67709 43.9946 6.77105 43.8872 7.01254 43.9583C6.76319 44.4758 6.53119 44.9887 6.27334 45.4877C5.85959 46.2867 5.44426 47.0855 4.99794 47.8659C4.70891 48.3712 4.67196 48.8082 5.01467 49.3235C5.6585 50.2911 6.23425 51.303 6.85559 52.286C7.00302 52.519 7.12954 52.7371 7.0806 53.0202C5.88442 52.2814 4.85062 51.3187 3.68297 50.5451C3.06496 50.1359 2.81094 49.6556 2.78645 48.9158C2.71599 46.7523 2.44776 44.5987 2.39686 42.4324C2.38212 41.7989 2.31526 41.1647 2.23256 40.5361C2.18644 40.1868 2.20003 39.8502 2.25027 39.5085Z" fill="white"/>
<path d="M7.49353 0.438357C7.78651 1.46611 8.07899 2.49381 8.37197 3.52157C8.40431 3.63399 8.43238 3.7485 8.47423 3.85736C8.67204 4.37509 8.61604 4.40624 9.15553 4.06363C9.51954 3.83247 9.85852 3.55457 10.2213 3.31617C10.2893 3.27157 10.3487 3.20375 10.5012 3.24863C10.3437 3.57548 10.1972 3.89941 10.0343 4.21454C9.77303 4.71916 9.51072 5.22369 9.22884 5.71652C9.04631 6.03567 9.02297 6.31165 9.23941 6.63709C9.64603 7.24821 10.0096 7.88727 10.4021 8.50806C10.4952 8.65525 10.5751 8.79295 10.5442 8.97178C9.78871 8.50517 9.1358 7.89716 8.39836 7.4086C8.00806 7.15014 7.84762 6.8468 7.83216 6.37961C7.78766 5.01325 7.61826 3.65307 7.58611 2.28496C7.5768 1.88485 7.53458 1.48434 7.48234 1.08735C7.45322 0.866726 7.4618 0.654123 7.49353 0.438357Z" fill="white"/>
</svg>
