<svg width="1512" height="470" viewBox="0 0 1512 470" fill="none" xmlns="http://www.w3.org/2000/svg">
<path d="M567.501 411.25C567.697 413.788 568.314 416.381 568.006 418.848C566.001 434.843 573.809 444.529 587.869 450.346C588.079 450.431 588.374 450.487 588.486 450.655C595.915 461.252 607.536 463.327 619.003 465.724C618.919 467.729 620.853 468.486 621.61 469.957H0C1.31768 467.322 0.658842 464.49 0.686877 461.743C0.897146 442.062 1.03733 422.381 1.19152 402.714C4.61189 402.041 7.97619 401.312 11.5367 401.326C35.5494 401.424 59.5621 401.368 83.5748 401.382C85.4391 401.382 87.3876 401.214 89.1399 401.676C100.887 404.802 112.325 410.381 124.914 404.41C127.395 403.232 130.899 404.185 133.927 404.242C148.674 404.536 163.393 410.774 178.224 404.34C179.962 403.583 182.401 404.129 184.448 404.438C200.302 406.835 216.212 408.475 232.277 408.391C255.126 408.265 277.975 408.447 300.824 408.307C308.899 408.265 316.608 408.909 323.253 414.18C325.454 415.918 328.117 415.386 330.668 414.993C341.308 413.325 351.92 414.348 362.601 414.699C371.054 414.979 379.605 415.358 388.114 414.965C393.356 414.713 399.09 412.891 403.758 414.39C418.673 419.199 433.7 416.759 448.671 416.647C458.47 416.577 468.198 418.33 477.898 417.937C489.183 417.474 500.411 417.853 511.654 418.245C516.237 418.4 520.807 421.484 525.349 418.091C526.092 418.652 526.765 419.535 527.578 419.703C537.657 421.722 547.974 422.815 556.329 430.006C558.571 431.941 559.861 429.53 560.071 427.077C560.408 423.18 560.828 419.283 561.221 415.386C564.795 416.227 565.3 412.442 567.501 411.208V411.25Z" fill="#125348"/>
<path d="M845.603 469.986C849.065 462.486 855.065 458.323 863.167 458.869C872.84 459.528 880.69 457.285 887.825 450.248C892.352 445.791 898.913 443.618 905.207 441.754C908.095 440.898 910.926 439.847 913.716 438.712C917.192 437.296 917.627 435.459 913.94 433.735C911.473 432.586 910.183 430.063 913.239 429.824C920.655 429.278 916.155 424.974 916.141 421.498C920.402 422.507 925.07 427.918 927.664 419.886C931.547 427.637 931.953 427.75 937.322 421.315C941.457 416.367 947.485 413.984 952.139 409.779C960.045 409.793 967.418 414.012 975.549 412.666C978.535 412.176 981.562 412.764 984.464 413.844C991.011 416.283 997.865 416.115 1004.47 414.783C1019.96 411.671 1035.39 411.909 1050.95 413.83C1061.79 415.161 1072.61 416.675 1083.54 414.222C1086.14 413.634 1089.36 413.76 1091.79 414.783C1102.06 419.087 1112.77 418.245 1123.44 418.175C1131.4 418.119 1139.25 418.035 1146.27 422.787C1148.68 424.413 1151.73 424.091 1154.46 423.558C1167.09 421.091 1179.87 422.801 1192.52 422.885C1202.12 422.941 1212 423.222 1221.46 422.998C1237.26 422.619 1253.12 422.367 1268.9 422.633C1283.26 422.871 1297.67 423.334 1311.98 425.044C1321.15 426.138 1330.13 429.74 1339.58 427.722C1347.21 426.096 1354.73 426.979 1362.41 427.441C1368.12 427.792 1371.67 432.684 1377.36 432.263C1400.08 430.609 1422.66 434.198 1445.41 434.03C1467.18 433.861 1489.09 434.128 1510.85 436.427C1512.41 447.585 1510.15 458.855 1512 470H845.603V469.986Z" fill="#125348"/>
<path d="M1510.78 9.94644C1511.62 13.535 1511.51 17.1236 1510.84 20.7122C1509.35 21.6794 1509.52 22.6326 1510.86 23.5858C1510.99 25.7306 1511.12 27.8613 1511.24 30.0061C1507.18 31.3518 1509.46 32.5713 1511.31 33.8049C1511.19 39.6644 1511.05 45.5379 1510.92 51.3974C1508.09 50.3881 1501.07 55.4626 1503.69 46.421C1503.76 46.1687 1502.76 45.2435 1502.31 45.2856C1499.26 45.5799 1495.92 46.2388 1494.67 49.2106C1493.69 51.5375 1495.18 54.0467 1497.21 55.785C1501.47 59.4156 1506.24 58.4203 1511.02 57.2008C1510.98 59.8922 1510.93 62.5837 1510.89 65.2611C1505.42 67.1675 1499.64 62.079 1493.55 66.1022C1499.07 70.1814 1503.73 74.7372 1511.02 72.6065C1511.58 85.6151 1511.49 98.6377 1510.79 111.632C1499.89 108.787 1494.69 119.721 1485.87 122.034C1484.43 122.412 1484.06 124.613 1484.05 126.295C1484.02 130.234 1484.01 134.173 1483.99 138.112C1483.98 142.177 1485.93 143.074 1489.28 141.224C1491.49 140.005 1493.65 138.645 1495.67 137.117C1500.2 133.711 1505.03 131.243 1510.86 131.398C1511 133.248 1511.28 135.098 1511.28 136.949C1511.28 217.636 1511.28 298.323 1511.26 379.01C1511.26 380.86 1510.98 382.711 1510.82 384.547C1501.51 383.608 1492.09 383.299 1482.94 381.533C1476.8 380.342 1470.9 383.313 1465 381.281C1458.25 378.954 1451.3 378.856 1444.28 378.996C1431.55 379.262 1418.96 377.131 1406.23 376.683C1389.26 376.066 1372.18 375.519 1355.45 376.893C1343.07 377.916 1330.94 376.332 1318.72 376.655C1305.85 376.991 1292.7 374.019 1279.62 373.136C1268.07 372.351 1256.54 371.258 1244.94 372.59C1227.1 374.65 1209.18 373.389 1191.34 372.856C1181.72 372.562 1172.37 369.127 1162.46 368.805C1156.21 368.609 1149.79 370.964 1143.86 368.791C1135.88 365.861 1127.75 367.053 1119.68 366.324C1104.85 364.992 1090.28 369.45 1075.47 367.894C1071.09 367.431 1066.66 367.543 1062.52 369.8C1059.32 371.538 1056.54 370.221 1054.75 367.277C1052.9 364.235 1050.33 362.497 1046.83 362.286C1040.87 361.922 1035.73 359.343 1030.64 356.581C1024.67 343.152 1012.58 337.082 1000.12 331.587C998.608 330.914 995.117 331.083 994.865 331.741C992.846 337.11 986.861 336.241 983.58 339.423C980.244 342.661 976.361 343.222 971.945 342.115C967.39 340.979 963.058 340.587 958.516 343.236C954.521 345.563 949.909 344.203 945.592 343.054C941.989 342.101 943.069 340.306 944.975 338.821C949.04 335.624 953.274 332.639 957.437 329.555C958.25 329.134 959.063 328.672 959.904 328.279C961.152 327.676 962.455 327.158 963.689 326.513C968.063 324.256 969.408 321.214 966.493 320.415C962.315 319.266 960.465 323.205 957.549 324.845C954.928 324.004 952.517 324.662 950.204 325.91C948.522 326.807 946.671 327.887 945.241 325.91C943.181 323.05 940.742 323.345 937.854 324.158C935.751 324.761 933.172 324.242 932.008 322.686C927.929 317.261 924.944 317.485 921.201 323.205C918.958 326.639 914.584 325.924 910.869 325.517C909.215 325.335 908.725 324.088 908.514 322.574C908.01 319.125 914.108 306.691 917.472 306.397C926.373 305.64 933.845 300.706 942.326 298.954C944.344 300.986 945.325 299.472 946.265 297.818C947.751 297.748 949.237 297.678 950.722 297.608C953.077 299.837 954.83 298.463 956.512 296.641C959.708 296.963 962.203 295.379 964.628 293.627C966.282 293.388 966.843 292.505 966.521 290.837C965.862 287.473 968.217 287.922 970.249 288.006C970.249 289.464 970.249 290.907 970.249 292.884C971.833 290.795 971.048 289.421 970.193 288.048L971.329 285.132C972.997 284.571 973.824 283.141 974.777 281.824C976.866 278.95 981.8 275.768 978.884 272.754C976.585 270.399 973.067 275.249 970.277 277.24C969.24 277.156 968.203 277.086 967.165 277.002C967.011 276.034 966.871 275.053 966.717 274.086C966.829 272.67 966.941 271.268 967.053 269.852C969.871 266.797 967.978 265.381 965.105 265.969C962.287 266.544 958.755 265.395 957.227 266.32C953.666 268.451 948.9 265.619 946.251 269.614C943.587 272.866 939.831 275.235 938.246 279.371C938.092 279.567 937.952 279.749 937.798 279.931C934.027 279.343 930.438 280.24 926.836 281.151C926.177 280.969 925.504 280.772 924.845 280.59C921.817 277.744 916.939 276.525 916.659 271.268C916.28 265.619 923.472 265.451 924.579 260.222C918.734 260.727 916.393 257.923 917.009 252.456C917.304 249.779 915.608 249.036 913.323 248.447C909.412 247.438 905.627 246.947 901.842 248.798C897.356 250.998 894.819 249.47 893.992 244.676C897.721 240.681 900.749 234.289 907.379 236.91C910.715 238.228 913.757 238.592 917.051 238.831C917.612 239.363 918.159 239.91 918.72 240.443C919.042 244.424 922.602 245.531 925.266 246.723C929.247 248.503 928.546 245.559 927.845 243.19C928.925 242.686 930.018 242.181 931.097 241.676C931.728 241.326 932.345 240.975 932.976 240.625C936.116 240.471 938.246 242.658 940.742 244.003C943.924 251.167 950.022 247.704 955.615 248.573C948.69 240.148 948.872 239.251 958.054 234.962C959.624 234.219 961.194 233.658 960.927 231.626C960.689 229.803 959.189 228.401 957.633 228.472C951.83 228.752 946.181 221.855 940.013 228.626C938.106 230.714 933.845 230.07 930.649 228.64C929.065 227.925 927.495 226.285 925.588 228.079C924.565 228.079 923.556 228.107 922.532 228.121C920.219 226.131 918.201 226.004 916.687 229.06C915.902 229.789 915.103 230.518 914.318 231.247C911.15 230.532 907.982 229.817 904.814 229.116C903.048 228.724 901.828 227.743 901.646 225.892C901.183 221.308 909.538 213.935 914.416 214.594C922.364 215.659 923.205 214.636 920.374 207.178C919.743 205.524 917.654 203.898 919.378 202.202C921.173 200.436 923.822 200.758 925.981 201.627C927.887 202.384 929.611 203.716 931.266 204.992C934.251 207.276 936.032 207.01 935.737 202.875C935.611 201.038 935.499 199.272 937.686 199.286C939.438 199.3 941.597 199.833 942.83 200.954C943.994 202.02 942.34 203.394 941.443 204.403C939.929 206.099 939.606 208.104 939.718 210.262C939.845 212.715 940.419 214.972 942.942 215.968C943.657 216.248 945.143 216.122 945.424 215.673C946.896 213.262 942.914 212.575 943.517 210.29C949.138 207.305 949.082 213.22 951.409 215.351C952.391 216.248 952.797 218.042 954.535 217.65C956.442 217.229 956.974 215.519 956.96 213.851C956.904 209.295 958.853 204.361 953.414 200.352C955.545 200.169 956.456 200.141 957.339 200.001C963.072 199.09 968.287 202.09 970.572 205.959C972.745 209.645 965.161 208.678 964.025 212.127C963.955 212.323 963.731 212.491 963.549 212.631C957.044 217.439 963.647 220.65 965.68 223.187C967.642 225.64 971.763 225.542 974.441 222.051C976.375 219.528 977.525 216.949 977.202 213.725C976.698 208.804 980.917 206.113 983.931 206.337C991.809 206.912 999.939 208.272 1005.43 215.211C1005.52 216.164 1005.6 217.117 1005.67 218.056C1005.45 219.893 1003.49 221.659 1005.45 223.593C1005.45 224.575 1005.45 225.556 1005.46 226.537C1000.82 231.527 997.444 238.032 989.832 239.434C989.426 239.504 988.879 239.882 988.753 240.247C986.566 246.33 981.898 245.237 977.258 244.298C976.179 240.849 973.263 242.097 970.936 241.817C967.488 241.41 965.637 243.246 965.399 246.372C965.077 250.592 969.184 247.171 970.404 248.966C970.74 252.008 972.17 253.269 975.001 251.475C977.174 250.101 979.291 248.854 981.954 248.727C987.758 248.461 992.342 245.7 996.225 241.578C1001.27 236.223 1004.41 236.322 1008.29 242.84C1010.78 247.003 1011.15 242.896 1012.46 242.321C1013.27 242.321 1014.1 242.321 1014.91 242.321C1016.19 243.513 1017.74 243.302 1019.28 243.176C1021.78 243.793 1023.17 245.181 1023.71 247.872C1024.25 250.522 1027.36 252.232 1028.98 250.956C1035.76 245.657 1040.79 252.246 1046.56 253.045C1049.2 253.409 1049.44 255.498 1046.72 257.334C1043.2 259.703 1039.9 262.423 1036.71 265.198C1035.78 265.997 1034.63 267.441 1035.54 268.885C1036.39 270.217 1038.08 270.217 1039.36 269.726C1045.12 267.511 1051.83 266.376 1052.88 258.47C1053.11 256.802 1053.71 254.741 1055.66 255.204C1058.17 255.806 1057.43 258.133 1056.67 259.731C1055.42 262.395 1056.11 264.175 1058.52 265.535C1059.99 267.722 1059.99 270.231 1060.08 272.726C1057.38 274.717 1054.82 275.572 1051.16 274.562C1047.57 273.567 1043.75 274.703 1040.34 278.726C1044.47 279.104 1048.6 278.235 1050.56 279.889C1056.47 284.894 1058.34 279.679 1061.27 276.665C1069.17 275.263 1076.66 279.469 1085.03 277.772C1089 276.973 1100.46 274.114 1098.5 286.674C1098.37 287.501 1099.73 288.566 1100.39 289.52C1100.87 290.01 1101.33 290.501 1101.81 290.977C1102.62 291.833 1103.43 292.674 1104.25 293.529C1103.69 294.58 1103.81 295.533 1104.6 296.416C1105.45 302.304 1108.62 304.491 1114.38 302.5C1121.22 302.794 1127.5 305.276 1133.89 307.364C1137.22 308.444 1139.85 311.037 1139.12 313.784C1137.34 320.471 1141.84 318.593 1144.93 318.859C1148.16 319.139 1150.65 317.135 1153.41 315.971C1157.46 314.261 1158.83 312.453 1154.32 309.509C1152.5 308.318 1149.26 307.098 1150.52 304.519C1151.66 302.22 1154.71 303.818 1156.95 304.014C1157.36 304.056 1157.79 303.776 1158.31 303.607C1158.31 302.963 1158.12 302.234 1158.34 301.673C1159.2 299.514 1151.19 292.561 1161.71 295.449C1163.47 295.94 1163.43 293.599 1163.35 292.323C1162.87 285.594 1162.39 278.866 1161.71 272.151C1161.33 268.493 1155.92 267.469 1155.73 267.848C1152.65 274.226 1147.48 268.339 1143.82 270.133C1141.94 270.105 1140.08 270.063 1138.2 270.035L1134.15 270.161C1130.81 269.979 1127.52 272.263 1124.1 270.511C1123.98 268.619 1126.46 267.96 1125.67 265.465H1118.99C1126.02 256.185 1134.97 251.867 1147.06 255.442C1143.03 251.054 1137.64 252.316 1133.08 250.522C1134.67 246.288 1138.83 248.041 1142.35 246.12C1136.98 243.681 1132.66 241.718 1127.01 239.153C1131.93 237.387 1135.63 237.948 1139.24 237.765C1141.46 237.653 1144.2 238.284 1143.08 234.135C1142.15 230.714 1144.27 230.686 1146.66 231.892C1148.73 232.929 1150.74 234.065 1153.1 235.326C1154.4 233.882 1152.4 228.219 1157.44 231.415C1159.14 226.145 1163.39 230.756 1166.51 229.495C1169.36 228.345 1176.96 228.948 1174.73 237.079C1174.28 238.705 1173.73 240.961 1177.84 240.19C1180.17 239.756 1185.27 238.845 1186.69 241.999C1188.07 245.083 1184.46 247.704 1182.69 250.396C1181.47 252.232 1179.35 253.662 1179.56 256.942C1185.42 255.12 1191.05 252.961 1197.09 253.031C1195.25 258.428 1187.75 256.732 1185.45 262.451C1191.27 262.998 1197.1 262.956 1202.57 267.988C1194.33 268.885 1187.05 267.413 1180.24 269.965C1176.03 271.549 1171.04 271.492 1169.29 277.254C1166.72 285.749 1171.13 292.435 1174.25 299.5C1174.42 299.879 1175.53 300.103 1176.12 299.977C1178.65 299.402 1181.6 295.926 1183.53 298.926C1185.17 301.477 1180.29 302.935 1179.82 305.71C1179.76 306.033 1180.2 306.439 1180.67 307.308C1183.04 305.892 1185.47 304.575 1187.75 303.047C1200.16 294.776 1212.55 286.492 1224.87 278.109C1227.86 276.076 1232.44 275.235 1233 271.072C1233.6 266.502 1228.4 267.385 1226.16 265.381C1225.99 265.227 1225.78 265.086 1225.66 264.904C1219.49 256.549 1209.68 253.76 1201.21 248.924C1202.04 243.204 1208.44 244.901 1211.02 241.536C1219.36 239.055 1225.71 247.746 1234.91 246.078C1230.2 240.387 1224.32 236.392 1223.95 228.99C1223.92 228.514 1222 228.121 1220.96 227.701C1220.96 225.472 1216.89 224.462 1218.88 221.869C1220.43 219.879 1223.06 220.579 1225.29 220.706C1228.02 220.86 1230.74 220.944 1233.39 220.047C1242.98 227.701 1249.78 237.261 1251.98 249.526C1254.94 248.657 1255.36 246.919 1255.98 245.517C1259.07 238.494 1262.07 231.415 1265.1 224.35C1265.72 222.906 1265.92 220.874 1268.12 221.168C1269.99 221.406 1270.54 223.229 1271.07 224.743C1272.08 227.616 1271.14 230.14 1269.67 232.691C1268.3 235.088 1267.23 237.681 1266.25 240.275C1265.65 241.859 1266.01 244.69 1267.64 244.088C1274.48 241.55 1281.04 242.461 1287.77 244.116C1288.46 244.284 1289.87 242.994 1290.4 242.069C1295.98 232.467 1306.17 228.542 1314.52 222.36C1319.15 218.925 1323.57 215.014 1329.43 213.627C1331.53 213.921 1333.59 214.131 1334.27 211.37C1337.03 211.187 1339.79 210.991 1342.54 210.809C1344.47 212.996 1345.05 211.594 1345.45 209.716C1358.64 201.165 1374.37 196.272 1384.31 182.983C1387.41 182.997 1388.81 181.456 1388.56 178.372C1391.02 173.171 1395.66 169.961 1399.7 166.19C1401.62 166.26 1402.67 165.349 1402.77 163.4C1404.12 161.466 1405.65 159.756 1408.07 159.167C1409.99 159.265 1411.04 158.354 1411.22 156.448C1413.57 154.079 1415.95 151.752 1419.3 150.812C1419.89 150.392 1420.46 149.971 1421.05 149.551C1422.45 149.074 1423.84 148.598 1425.24 148.121C1426.63 149.761 1428.05 149.775 1429.46 148.149C1431.48 148.612 1433.49 149.144 1435.52 149.551C1446.05 151.597 1456.59 151.71 1467.11 149.495C1476.57 147.261 1481.3 141.392 1481.29 131.888C1481.29 130.5 1481.36 129.099 1481.26 127.711C1481.1 125.51 1481.94 122.692 1478.88 121.893C1476.38 121.235 1473.73 121.207 1471.92 123.66C1471.04 124.851 1469.96 125.594 1468.5 125.79C1464.25 123.001 1459.04 125.79 1454.32 123.393C1458.25 120.548 1462.01 118.01 1465.57 115.235C1467.65 113.609 1467.7 110.343 1465.07 110.917C1460.64 111.899 1455.25 112.431 1452.2 116.3C1447.76 121.935 1439.71 124.192 1434.05 119.805C1429.87 116.567 1425.94 116.454 1421.07 117.352C1417.57 117.982 1413.33 121.01 1410.36 117.197C1425.8 101.273 1448.18 103.194 1468.26 94.8108C1444.31 85.4468 1424.79 99.3666 1403.53 101.217C1404.79 99.7732 1406.91 98.2592 1406.67 97.4882C1404.29 89.9326 1409.07 92.582 1412.58 93.0305C1415.51 93.395 1419.43 94.4324 1420.5 90.7737C1421.51 87.3253 1423.73 86.9468 1426.29 85.8113C1429.32 84.4656 1432.39 83.6806 1435.57 83.0217C1436.93 82.7414 1438.31 81.676 1438.29 80.1761C1438.27 78.1996 1436.41 78.4519 1435.13 78.48C1428.38 78.5781 1421.65 78.1295 1414.9 79.0967C1409.86 79.8117 1404.69 79.5874 1399.58 79.6995C1398.13 79.7275 1396.56 79.4052 1396.28 77.751C1395.99 75.9287 1397.54 75.4521 1398.97 75.2979C1411.69 73.9242 1423.42 67.6581 1436.56 68.1067C1439.48 68.2048 1443.33 71.1906 1445.53 67.4338C1447.42 64.2097 1441.05 64.3779 1441.94 60.9996C1442.93 58.5185 1442.79 58.0699 1439.93 57.8176C1432.25 57.1307 1424.81 58.2241 1417.66 61.1819C1414.52 61.6304 1411.14 62.7519 1411.9 57.1868C1412.09 55.7149 1410.02 55.6868 1408.65 55.8691C1406.33 55.4766 1403.4 56.4018 1402.41 53.1216C1401.34 49.575 1405.62 50.7245 1406.36 48.762C1406.51 48.3555 1406.53 47.8789 1406.6 47.4443C1409.96 45.8743 1413.29 47.4864 1416.64 47.5985C1422.5 53.43 1430.34 51.2993 1437.31 52.659C1437.96 52.7852 1439.15 52.0702 1439.5 51.4394C1440.27 50.0096 1438.83 49.7292 1437.96 49.0283C1433.79 45.622 1428.55 44.3604 1423.95 41.8091C1422.12 39.2719 1423.52 35.6132 1422.09 33.5806C1418.19 28.0295 1422.61 29.4874 1425.23 29.2211C1429.97 29.0949 1434.52 28.6042 1438.69 32.347C1440.75 34.2114 1445.22 36.5945 1447.29 33.7208C1449.16 31.1415 1444.85 29.0949 1443.02 26.9642C1442.58 26.4595 1442.34 25.7867 1442.02 25.1839C1442.69 21.8056 1444.78 22.5906 1447.17 23.1793C1450.25 23.9363 1452.47 26.7399 1455.84 26.6558C1460.29 29.8939 1467.42 27.2585 1471.49 20.8664C1472.38 20.2356 1473.28 19.6048 1474.18 18.974C1477.6 19.3384 1478.95 16.2405 1481.23 14.7125C1489.61 12.9322 1498.5 13.535 1506.36 9.3717C1507.86 9.59599 1509.35 9.80626 1510.85 10.0305L1510.78 9.94644ZM1017.04 329.849C1018.72 331.419 1020.36 333.045 1022.12 334.545C1023.31 335.568 1024.65 335.568 1025.87 334.545C1027.01 333.592 1027.92 332.036 1027.13 330.914C1025.09 327.999 1023.55 324.214 1019.73 323.275C1017.2 322.644 1013.77 322.195 1014.27 326.877C1011.63 325.419 1008.99 323.948 1006.05 322.321C1006.05 324.466 1005.78 326.064 1006.11 327.536C1007.12 332.232 1011.73 332.442 1015.04 333.62C1017.8 334.601 1016.99 331.517 1017.07 329.877L1017.04 329.849ZM1036.12 345.367C1038.56 347.119 1041.19 348.675 1043.41 350.68C1047.49 354.366 1049.7 349.993 1052.46 348.675C1054.22 347.834 1056.43 345.773 1054.6 343.699C1052.73 341.582 1050.36 339.143 1046.77 340.419C1045.89 340.727 1045.01 341.021 1044.12 341.316C1043.93 339.493 1044.24 337.391 1041.64 336.914C1041.24 336.76 1040.82 336.76 1040.41 336.914C1039.81 334.335 1041.56 333.073 1043.32 331.938C1048.6 328.517 1046.83 323.429 1044.22 320.541C1040.37 316.294 1040 322.644 1038.29 324.13C1031.7 329.779 1031.98 332.358 1038.8 337.054C1035.78 336.76 1034.41 338.344 1034.14 341.161C1033.04 341.302 1031.19 341.274 1031.33 342.437C1031.65 344.946 1034.04 345.101 1036.09 345.395L1036.12 345.367ZM1506.31 86.0496C1501.61 84.3114 1497.93 79.0967 1493.55 82.461C1490.97 84.4376 1490.36 90.984 1492.71 93.2689C1496.24 96.6892 1501.33 94.7828 1505.97 92.2596C1503.53 90.0728 1500.25 90.1429 1499 87.4374C1501.26 85.7132 1503.36 88.5168 1506.32 86.0496H1506.31ZM1434.07 41.1923C1440.26 44.108 1446.66 45.9304 1453.66 44.3604C1454.53 44.1641 1455.61 44.2202 1455.8 43.0427C1456.04 41.5848 1454.99 41.1363 1453.88 40.6597C1447.38 37.8281 1440.84 37.9962 1434.07 41.1923ZM982.922 256.409C992.622 258.694 998.537 254.25 1004.05 248.713C996.925 250.087 989.16 249.667 982.922 256.409ZM1032.35 278.768C1030.57 281.487 1033.5 282.651 1032.81 284.585C1031.61 287.964 1034.07 288.889 1036.46 288.861C1039.11 288.833 1041.66 287.249 1042.32 284.697C1043.09 281.684 1040.1 281.936 1038.22 281.305C1036.3 280.646 1034.48 279.707 1032.35 278.782V278.768ZM998.748 313.504C996.21 310.42 995.369 306.481 992.902 303.523C992.061 302.514 990.954 301.07 989.496 302.094C988.809 302.584 988.725 304.112 988.599 305.191C987.716 312.607 995.131 310.785 998.748 313.504ZM1486.04 64.2097C1483.42 61.0837 1480.07 61.8127 1477.25 60.9716C1475.24 60.3688 1473.35 60.7473 1473.25 63.3126C1473.17 65.5134 1474.67 66.8171 1476.77 66.789C1479.9 66.761 1483.28 67.3357 1486.04 64.2097ZM1007.65 303.005C1007.49 300.692 1007.31 296.991 1004.41 297.356C1001.27 297.762 1002.93 302.136 1001.69 304.561C1000.64 306.607 1002.15 308.374 1004.33 308.36C1007.62 308.346 1007.42 305.556 1007.65 302.991V303.005ZM1479.62 90.6756C1482.14 88.2364 1487.5 91.4465 1489.21 86.6104C1489.91 84.6479 1487.94 83.7647 1486.15 84.1152C1482.39 84.8301 1478.5 85.7412 1476.52 89.3999C1475.99 90.3952 1478.05 90.5774 1479.62 90.6756ZM1122.16 315.256C1119.58 313.546 1117.83 312.116 1115.84 311.149C1113.88 310.182 1111.76 310.35 1110.12 312.046C1109.28 312.915 1108.91 314.093 1109.85 315.13C1111.17 316.588 1112.84 317.205 1114.82 316.798C1116.96 316.364 1119.09 315.901 1122.16 315.27V315.256ZM1006.57 263.502C1008.59 262.787 1009.98 261.61 1010.14 259.605C1010.34 257.25 1009.01 255.596 1006.86 254.993C1004.87 254.433 1003.57 255.806 1004.03 257.643C1004.54 259.661 1004.41 262.185 1006.58 263.502H1006.57ZM1470.91 65.3172C1470.21 63.649 1469.1 61.9389 1466.78 61.7706C1464.94 61.6305 1464.56 63.0743 1464.66 64.5181C1464.83 66.9292 1466.29 68.2048 1468.66 68.2609C1470.28 68.3029 1471.15 67.3918 1470.91 65.3172ZM1459.17 66.3825C1460.85 66.6348 1461.35 65.5975 1461.46 64.434C1461.65 62.5697 1461.6 60.6772 1459.1 60.3548C1457.88 60.2006 1456.53 60.6211 1456.78 61.9949C1457.08 63.649 1457.25 65.6676 1459.17 66.3825Z" fill="#094036"/>
<path d="M1.19229 402.742C0.477373 383.636 0.309158 364.529 1.19229 345.423C8.78999 346.572 16.4998 346.376 24.0695 347.133C28.8917 347.61 33.9381 345.675 38.3958 347.848C45.601 351.366 53.8576 344.512 60.7123 350.413C60.9646 350.637 62.1141 350.161 62.6047 349.726C66.9643 345.983 72.235 347.175 77.2675 346.74C84.4026 346.124 91.033 349.109 97.8738 349.418C123.905 350.623 149.978 349.81 176.024 350.259C191.836 350.525 207.97 349.866 223.867 350.091C233.595 350.231 245.356 348.254 252.716 358.642C253.206 359.328 254.902 359.385 256.024 359.356C262.276 359.23 268.5 359.356 275.06 361.964C274.457 356.931 274.738 352.502 280.541 352.544C288.195 352.586 295.891 351.478 303.488 353.427C311.1 355.375 318.67 358.193 326.394 358.768C336.22 359.497 346.187 358.207 356.084 358.053C366.751 357.885 366.667 358.011 366.807 347.539C366.877 341.904 365.686 335.905 370.62 331.391C370.452 333.451 370.41 335.54 370.059 337.573C368.644 345.773 368.742 345.941 376.9 345.114C378.036 345.002 379.395 344.329 380.124 345.451C381.049 346.867 380.04 348.212 379.003 349.095C376.367 351.338 374.012 353.693 373.143 357.548C374.797 357.758 376.143 357.927 377.489 358.123C380.377 358.529 384.652 357.941 385.255 361.039C385.83 363.968 381.162 363.982 379.185 365.777C378.947 366.001 379.045 366.576 378.905 367.515C383.11 367.515 386.502 365.51 389.993 363.884C394.212 361.908 398.628 360.87 402.385 364.431C409.912 371.58 419.234 373.669 429.061 375.113C441.032 376.865 453.2 378.589 463.335 385.864C467.414 388.78 471.605 390.448 476.273 392.004C482.483 394.079 483.1 391.359 483.072 386.523C483.03 379.318 483.17 372.113 483.24 364.908C484.698 363.31 484.263 361.319 484.361 359.427C488.679 359.567 491.637 357.38 493.838 353.89C508.108 347.652 522.56 344.764 539.143 353.301C537.041 350.329 536.396 349.418 535.737 348.493C540.685 346.838 546.236 345.058 549.461 350.455C552.152 354.955 555.474 355.614 559.792 355.207C564.011 354.815 568.132 355.544 572.057 356.735C576.277 358.025 579.599 357.282 582.613 354.282C587.141 353.679 590.617 350.637 594.682 348.983C602.799 345.703 610.999 343.6 619.662 346.895C611.798 350.988 603.934 355.081 596.07 359.174C594.276 359.889 592.173 360.198 591.486 362.525C593.351 364.165 594.781 362.693 596.308 362.006C607.691 361.221 618.485 362.482 627.372 371.524C610.523 368.496 594.374 370.991 578.576 376.528C574.777 373.837 572.268 376.164 570.726 379.15C568.483 383.453 566.815 388.107 569.632 392.957C569.408 394.836 569.17 396.714 568.945 398.593C566.773 399.574 566.591 400.976 568.104 402.714C568.217 405.588 568.455 408.475 567.432 411.251C565.231 412.484 564.726 416.269 561.151 415.428C559.091 405.223 559.736 394.583 556.357 384.589C561.081 377.944 559.525 373.01 551.914 370.543C546.12 368.664 543.227 370.636 543.237 376.458C526.681 372.435 510.168 372.575 493.711 377.019C494.006 371.846 499.431 370.319 501.856 366.422C491.763 364.165 490.263 366.043 492.155 377.72C490.726 384.322 491.903 391.009 491.412 397.653C491.006 403.134 493.627 405.966 499.192 405.447C504.211 404.985 508.711 405.924 512.509 409.4C512.622 411.195 512.72 413.003 515.173 411.097C517.065 411.391 518.649 412.26 519.995 413.606C519.308 414.124 518.397 414.559 518.902 415.694C518.958 415.835 519.28 415.975 519.434 415.933C520.57 415.666 520.556 414.699 520.71 413.816C523.205 414.237 524.649 415.779 525.28 418.148C520.738 421.54 516.168 418.456 511.584 418.302C500.342 417.909 489.113 417.545 477.829 417.993C468.143 418.386 458.414 416.634 448.602 416.704C433.631 416.816 418.589 419.255 403.688 414.447C399.02 412.947 393.287 414.769 388.044 415.022C379.536 415.428 370.985 415.036 362.532 414.755C351.85 414.405 341.239 413.381 330.599 415.05C328.048 415.442 325.37 415.975 323.184 414.237C316.539 408.966 308.829 408.321 300.755 408.363C277.906 408.503 255.057 408.321 232.207 408.447C216.129 408.531 200.233 406.891 184.378 404.494C182.318 404.186 179.893 403.639 178.154 404.396C163.323 410.83 148.619 404.592 133.858 404.298C130.83 404.242 127.325 403.289 124.844 404.466C112.242 410.438 100.818 404.859 89.0705 401.733C87.3183 401.27 85.3698 401.438 83.5054 401.438C59.4928 401.424 35.4801 401.48 11.4674 401.382C7.90686 401.368 4.54257 402.083 1.1222 402.77L1.19229 402.742Z" fill="#0E4A40"/>
<path d="M1030.68 356.581C1035.77 359.343 1040.92 361.936 1046.87 362.286C1050.38 362.497 1052.94 364.221 1054.79 367.277C1056.59 370.221 1059.36 371.524 1062.56 369.8C1066.71 367.543 1071.14 367.431 1075.51 367.894C1090.33 369.45 1104.89 364.992 1119.72 366.324C1127.78 367.053 1135.91 365.847 1143.9 368.791C1149.83 370.977 1156.25 368.608 1162.51 368.805C1172.42 369.113 1181.77 372.562 1191.38 372.856C1209.23 373.389 1227.14 374.65 1244.99 372.59C1256.59 371.258 1268.12 372.351 1279.67 373.136C1292.76 374.019 1305.9 376.991 1318.76 376.655C1330.99 376.346 1343.11 377.916 1355.49 376.893C1372.23 375.505 1389.3 376.066 1406.28 376.683C1419.01 377.145 1431.59 379.262 1444.32 378.996C1451.33 378.856 1458.3 378.954 1465.04 381.281C1470.94 383.313 1476.84 380.341 1482.98 381.533C1492.12 383.299 1501.56 383.622 1510.87 384.547C1511.71 401.831 1511.61 419.115 1510.87 436.399C1489.11 434.114 1467.2 433.834 1445.43 434.002C1422.68 434.184 1400.1 430.596 1377.37 432.236C1371.68 432.642 1368.14 427.764 1362.43 427.414C1354.75 426.937 1347.22 426.068 1339.59 427.694C1330.15 429.713 1321.16 426.11 1311.99 425.017C1297.67 423.306 1283.26 422.858 1268.92 422.605C1253.13 422.339 1237.29 422.605 1221.48 422.97C1212.02 423.194 1202.14 422.928 1192.53 422.858C1179.89 422.774 1167.12 421.064 1154.47 423.531C1151.74 424.063 1148.68 424.386 1146.29 422.76C1139.26 418.008 1131.41 418.092 1123.45 418.148C1112.8 418.232 1102.08 419.073 1091.8 414.755C1089.38 413.732 1086.17 413.606 1083.56 414.195C1072.62 416.662 1061.79 415.148 1050.97 413.802C1035.42 411.882 1019.97 411.643 1004.48 414.755C997.88 416.087 991.026 416.241 984.479 413.816C981.563 412.737 978.55 412.134 975.564 412.639C967.433 413.984 960.074 409.765 952.154 409.751C952.182 408.84 952.21 407.915 952.238 407.004C953.64 406.975 955.056 407.004 956.163 405.91C961.644 402.055 967.111 398.172 972.606 394.331C973.615 393.63 974.597 392.93 973.84 391.584C973.167 390.392 971.835 390.28 970.756 390.589C965.863 391.948 960.579 392.313 956.513 395.901C953.121 395.873 952.448 392.411 950.233 390.981C947.64 389.299 944.262 386.594 943.603 392.789C937.687 392.789 931.842 391.023 925.828 392.747C922.66 393.659 924.146 386.972 919.969 388.276C920.796 387.014 921.525 385.668 922.464 384.491C923.445 383.243 924.623 382.136 925.702 380.958C929.193 380.664 932.683 380.37 937.898 379.935C934.225 378.491 932.206 377.692 930.51 377.033C930.02 373.935 934.099 375.828 933.748 373.178C931.744 371.426 929.431 370.557 926.796 370.585C926.782 369.646 926.753 368.693 926.739 367.753C927.202 367.641 927.679 367.529 928.141 367.417C931.225 367.235 936.566 369.337 936.902 366.408C937.547 360.941 939.44 362.945 941.977 364.151C943.196 364.726 944.15 364.403 945.033 363.394C949 358.824 954.355 364.039 958.77 361.515C959.724 360.969 960.537 362.903 960.34 364.039C959.401 369.562 962.99 370.094 966.887 369.828C971.415 369.534 970.209 371.749 968.877 373.949C967.265 376.613 965.429 379.15 963.438 382.108C967.742 382.753 970.756 378.435 974.933 381.127C972.76 383.425 969.031 383.776 967.91 386.355C978.648 391.247 986.274 385.08 994.138 379.711C996.254 378.267 998.497 377.005 1000.53 375.449C1008.51 369.309 1016.54 363.282 1026.98 362.16C1030.71 361.754 1030.46 359.076 1030.7 356.553L1030.68 356.581Z" fill="#0E4A40"/>
<path d="M370.649 331.39C365.7 335.904 366.906 341.918 366.836 347.539C366.71 358.01 366.794 357.884 356.112 358.052C346.201 358.206 336.249 359.496 326.422 358.767C318.698 358.192 311.115 355.375 303.517 353.426C295.919 351.478 288.209 352.585 280.57 352.543C274.766 352.515 274.486 356.931 275.089 361.963C268.528 359.356 262.318 359.216 256.052 359.356C254.931 359.384 253.235 359.328 252.744 358.641C245.385 348.254 233.61 350.244 223.895 350.09C207.999 349.852 191.864 350.525 176.052 350.258C150.007 349.824 123.919 350.623 97.9023 349.417C91.0475 349.095 84.4311 346.123 77.2959 346.74C72.2635 347.174 66.9928 345.983 62.6332 349.726C62.1426 350.146 61.0071 350.623 60.7408 350.412C53.886 344.511 45.6295 351.366 38.4243 347.847C33.9666 345.674 28.9202 347.609 24.098 347.132C16.5143 346.375 8.81848 346.572 1.22078 345.422C1.06658 344.273 0.80024 343.137 0.80024 341.988C0.758186 286.869 0.744169 231.737 0.758186 176.618C0.758186 175.497 1.10863 174.362 1.29087 173.24C3.63186 173.282 5.95883 173.324 8.29982 173.366C10.1922 179.969 15.6452 176.773 19.6683 177.516C21.5187 177.978 23.3831 178.427 25.2334 178.889C28.6538 182.492 31.5135 186.922 37.3309 186.95C38.8589 188.015 40.3868 189.066 41.9148 190.132C51.6292 194.085 51.8254 193.945 51.8394 183.613C51.8394 175.259 51.8394 166.904 51.8394 156.657C53.6197 160.161 52.9188 162.362 54.7832 163.526C54.7552 174.418 54.7411 185.324 54.7131 196.215C54.7131 198.627 54.7692 200.982 57.9653 201.36C60.6567 201.683 63.7406 203.841 65.8994 201.724C67.6236 200.028 65.3106 197.519 64.5677 195.43C64.4135 195.01 64.049 194.66 63.8388 194.253C63.0678 192.767 62.3949 191.071 63.6986 189.739C65.1845 188.225 66.7124 189.711 68.1002 190.356C69.3478 190.945 70.6234 191.646 71.6047 192.585C75.8521 196.678 75.5577 192.921 75.8801 190.188C77.5483 190.006 79.9594 192.206 80.7724 189.795C83.5199 181.735 85.0479 188.884 87.0384 190.132C86.7861 194.982 86.0852 200.127 93.8231 195.837C95.2949 195.024 98.3649 194.505 99.5704 196.496C100.72 198.402 98.1686 199.538 97.2014 201.024C96.2341 202.509 94.7062 203.897 95.2529 206.322C97.8883 206.701 100.636 206.897 103.285 207.528C104.715 207.864 106.958 207.864 107.042 209.967C107.112 211.859 105.178 212.448 103.748 213.149C100.762 214.593 97.7481 215.953 94.3277 217.537C103.173 223.13 105.85 233.153 114.345 238.171C124.592 244.227 131.601 254.292 140.769 261.791C143.741 264.23 147.848 265.282 149.25 269.88C150.007 272.361 153.315 273.608 156.259 273.819C164.333 274.407 169.926 279.215 174.776 284.977C176.697 287.262 178.758 289.35 181.617 289.238C191.752 288.832 201.284 290.065 210.662 294.663C216.185 297.369 218.596 294.916 218.372 288.313C218.12 280.884 217.475 273.468 216.774 266.067C216.41 262.142 215.807 261.889 209.681 261.245C210.256 262.296 210.802 263.291 211.349 264.3L211.433 264.216C202.434 262.997 193.42 262.128 184.337 263.305C182.879 263.487 180.93 265.085 180.131 262.927C179.767 261.959 181.155 260.347 181.841 258.805C179.304 258.553 177.103 258.343 174.692 258.105C180.37 248.839 188.57 245.923 199.462 247.703C196.042 243.232 190.659 246.133 188.29 241.662C190.673 240.61 192.719 239.713 194.85 238.788C192.243 234.961 186.972 235.872 184.449 232.34C185.122 231.737 185.444 231.218 185.795 231.176C188.57 230.938 191.346 230.784 194.121 230.643C196.434 230.517 198.803 231.078 197.934 226.999C196.63 220.845 200.261 223.046 202.98 224.574C205.321 225.877 207.859 229.76 209.022 223.663C212.499 225.022 215.639 219.653 216.34 220.859C218.793 225.036 223.685 218.504 225.157 223.508C231.1 218.882 229.278 224.532 229.586 226.971C229.839 229.017 229.643 231.106 229.643 233.517C230.708 233.251 231.395 233.237 231.913 232.942C235.376 230.98 239.721 232.199 241.6 233.826C243.843 235.76 240.773 239.236 238.992 241.634C237.324 243.876 235.348 245.895 235.25 248.923C234.787 249.385 234.325 249.862 233.862 250.325L233.469 250.619L233.82 250.283C234.282 249.82 234.759 249.357 235.222 248.895C244.586 245.727 253.823 243.582 261.898 251.895C269.692 249.175 276.925 251.039 283.962 254.558C285.35 259.969 291.181 257.362 292.611 257.081C299.48 255.764 296.48 259.114 295.541 261.777C293.943 266.333 288.952 268.94 288.462 274.127C288.364 274.253 288.265 274.393 288.167 274.519C288.251 274.379 288.336 274.225 288.42 274.085C294.644 272.571 300.405 267.609 307.372 271.45C306.671 271.912 305.97 272.375 305.269 272.837C300.966 273.917 296.928 275.431 293.396 279.51H303.825C304.652 279.622 305.493 279.72 306.32 279.832C306.867 280.225 307.428 280.617 307.975 281.01C309.531 281.935 311.073 282.86 312.629 283.785C312.643 284.542 312.671 285.299 312.685 286.056C311.101 285.86 309.517 285.65 307.933 285.454C304.26 283.547 300.601 283.477 296.957 285.524C290.775 286.827 284.242 287.234 279.448 292.182C277.808 292.785 276.995 293.598 278.663 295.098C278.411 298.785 278.159 302.485 277.892 306.172C276.322 306.859 275.663 307.742 277.275 309.102C277.289 313.041 277.275 316.994 277.331 320.933C277.444 331.026 278.831 333.156 288.756 332.652C297.223 332.217 304.008 335.357 310.876 339.212C311.143 340.123 311.745 341.147 312.629 340.263C313.526 339.366 312.474 338.792 311.563 338.539C311.339 337.081 311.115 335.624 310.89 334.166L311.044 329.848C313.806 331.278 316.568 332.722 319.329 334.152C319.834 334.418 320.408 334.993 320.815 334.895C321.782 334.642 321.796 333.759 321.544 332.918C321.642 329.666 321.74 326.414 321.838 323.162C322.89 322.517 323.296 321.521 323.366 320.344C325.175 315.354 326.997 321.213 328.805 320.344C329.352 323.134 329.913 325.909 330.459 328.699C328.553 331.026 328.244 333.044 331.581 334.32C332.141 336.731 333.992 337.152 336.066 337.208C337.622 339.086 341.421 339.969 338.688 343.712C337.286 345.632 338.59 347.3 340.454 346.642C345.108 344.973 348.963 347.973 353.252 348.1C354.612 348.212 355.874 348.057 356.771 346.838C362.252 344.118 364.467 336.31 360.766 332.834C361.102 330.998 361.439 329.175 361.789 327.339C363.528 326.764 364.214 325.909 362.532 324.465C362.672 323.554 362.813 322.643 362.953 321.732C365.672 320.821 365.925 319.377 363.864 317.442C363.864 316.055 363.878 314.667 363.892 313.279C364.06 312.368 364.228 311.457 364.397 310.531C367.467 309.368 367.298 307.377 365.77 305.051C366.836 299.415 367.887 293.78 368.952 288.145C370.565 287.542 371.209 286.701 369.653 285.313L371.097 278.318C373.466 278.318 375.821 278.346 378.19 278.346C378.302 279.272 378.429 280.211 378.541 281.136C378.246 282.047 377.952 282.958 377.658 283.883C375.835 284.416 375.064 285.243 376.831 286.799C376.831 288.636 376.859 290.472 376.873 292.308C376.788 293.233 376.704 294.159 376.62 295.098C375.415 296.317 375.331 297.775 375.695 299.331C375.513 301.182 375.331 303.018 375.162 304.868C374.335 305.667 374.083 306.62 374.405 307.728C373.957 311.877 373.508 316.013 373.074 320.162C372.681 321.129 372.275 322.096 371.882 323.063C369.485 324.059 369.289 325.475 371.055 327.283C370.943 328.671 370.831 330.058 370.719 331.446L370.649 331.39ZM270.883 293.668C272.888 288.229 269.902 285.846 265.346 283.996C260.959 282.215 262.43 287.023 260.51 287.907C253.669 286.168 246.828 286.337 239.904 287.5C237.703 287.865 234.619 289.561 233.974 285.299C235.362 284.949 237.296 284.304 236.918 282.902C236.119 279.902 232.614 282.51 231.016 280.659C240.927 270.608 241.348 270.468 256.851 271.884C252.646 267.384 246.492 269.235 242.189 266.347C244.403 263.249 247.992 264.791 251.524 262.73C242.399 258.974 235.067 262.632 227.736 265.38C222.704 267.272 224.47 271.954 224.035 275.655C223.713 278.403 223.559 281.164 223.334 283.926C223.138 286.925 222.732 289.925 222.788 292.925C222.942 301.798 231.941 309.424 240.548 307.98C243.548 307.476 246.38 307.7 248.048 310.307C253.277 318.466 262.444 320.316 270.112 324.563C270.659 325.419 271.164 325.559 271.598 324.493C274.57 314.148 272.804 303.915 270.897 293.682L270.883 293.668ZM241.067 254.011C245.006 254.236 247.754 254.404 250.501 254.544C251.903 254.614 254.202 256.24 254.258 253.507C254.314 251.208 253.01 248.656 250.011 249.077C247.039 249.498 244.361 250.969 241.053 254.011H241.067Z" fill="#094036"/>
<path d="M118.297 68.7366C123.119 71.5542 122.895 77.2314 126.554 81.2966C122.573 82.3059 120.932 80.2033 119.012 78.7594C115.494 75.1848 110.517 78.0725 106.564 75.9838C105.443 75.3951 104.013 76.853 103.704 78.409C103.326 80.3574 104.518 82.0816 106.088 82.0256C110.952 81.8854 113.839 86.1889 118.227 86.8898C119.04 88.8523 119.306 91.1512 121.577 92.2026C120.708 93.9268 119.026 93.31 117.652 93.5763C115.592 92.4829 113.629 91.0811 111.442 90.3802C107.489 89.1326 102.723 87.3804 99.9757 91.5998C97.1861 95.8893 102.457 97.8658 104.405 100.711C105.022 101.609 106.172 102.211 107.167 102.786C108.513 103.571 110.615 103.865 110.111 106.024C109.62 108.085 107.587 107.762 106.017 107.805C101.728 107.917 97.845 108.604 95.8264 113.103C97.9151 114.589 99.4711 113.524 100.859 112.935C107.798 109.977 114.568 109.178 121.451 113.286C123.203 114.337 126.035 114.505 126.371 116.678C126.806 119.537 123.638 119.341 121.9 119.958C119.208 120.897 117.064 122.103 115.802 125.369C120.19 125.383 124.647 122.916 128.04 128.201C115.536 131.116 103.2 131.495 90.9902 132.714C86.6867 131.355 82.3692 130.009 78.0657 128.649C70.9586 126.659 68.9401 134.831 63.5432 135.966C55.8053 137.607 53.8428 142.499 54.9222 149.536C53.5063 149.227 51.7821 148.583 52.0905 147.083C53.6185 139.569 48.516 138.952 43.3293 138.279C40.8061 139.205 37.568 138.84 36.3905 142.162C35.4513 142.303 34.4981 142.429 33.5589 142.569C33.1103 140.242 32.6617 137.901 32.2131 135.574C33.0402 133.738 34.8345 133.121 36.4325 132.21C37.596 131.551 37.7642 130.373 37.4979 129.196C37.2035 127.92 36.2643 127.388 34.9887 127.261C31.8767 126.953 24.3071 133.387 23.7323 136.85C22.8071 136.878 21.896 136.892 20.9708 136.92C19.583 137.368 18.1812 137.831 16.7935 138.279C11.5087 138.181 6.0277 139.12 1.38777 135.462C0.224287 130.261 0.546699 125.047 1.16349 119.832C1.71018 119.902 2.32697 120.014 2.18679 119.159C2.15876 119.033 1.52795 118.991 1.16349 118.921C0.995272 112.29 -0.0560715 105.646 1.28965 99.0293C1.65411 98.7349 2.00456 98.4406 2.36903 98.1322C2.01858 97.992 1.66813 97.8518 1.31768 97.7256C0.420537 93.4782 0.294376 89.2168 1.26161 84.9693C4.75207 85.3338 7.89208 85.1936 8.10235 80.5116C8.32664 75.3671 4.87823 75.1848 1.16349 75.3531C1.10741 73.4326 1.03733 71.4981 0.981254 69.5777C3.6026 68.6665 7.92012 71.5402 8.70512 68.0077C9.2378 65.6106 4.8502 64.2789 2.41108 62.807C2.04661 62.5827 1.54197 62.6248 1.0934 62.5547C0.967236 60.8305 0.841075 59.1203 0.728931 57.3961C2.45313 57.0176 3.68671 57.6484 5.0885 58.7839C9.30789 62.2043 14.7328 61.5314 19.6531 62.1061C21.2371 62.2884 25.1481 62.5547 25.1762 59.4427C25.1902 57.27 22.0922 56.7233 20.1437 56.4569C13.5413 55.5738 6.88279 55.0411 0.238305 54.3822C0.154197 51.9992 0.0841074 49.6022 0 47.2191C2.71947 45.9855 4.72403 47.6116 7.03699 48.691C10.3592 50.247 13.7796 52.4057 17.7887 50.3171C13.7375 43.224 7.97619 38.6121 0.770985 35.7244C0.714913 33.6357 0.658842 31.5471 0.60277 29.4584C2.70546 29.122 4.78011 28.0146 6.9669 29.0659C6.68654 36.145 12.0975 36.2291 16.8635 37.0982C19.611 37.8972 22.3445 40.6447 25.0921 37.0982C27.0125 37.1683 29.0451 36.6636 30.8534 38.0794C29.6058 39.6634 26.7041 39.6074 27.0405 42.6493C31.2459 42.7754 34.2177 39.5373 37.9465 38.514C43.1331 36.8458 48.7543 36.0188 52.3288 31.1826C53.0858 30.8883 53.8568 30.6079 54.6138 30.3135C55.5109 30.2294 56.394 30.1453 57.2912 30.0472C58.3005 30.0472 59.3098 30.0472 60.305 30.0472C62.3937 30.5939 64.174 30.0752 66.2206 29.2622C72.0941 26.9212 78.1218 26.6969 84.0373 29.4724C88.6773 30.1173 91.607 34.9394 96.6254 34.6451C98.1534 39.2149 101.251 40.5185 106.045 40.5746C110.363 40.6167 115.269 40.4344 118.69 44.3034C117.358 44.8501 116.026 45.3968 114.695 45.9435C113.181 49.8825 108.765 50.6535 106.27 53.2328C106.522 55.2233 111.232 54.2982 108.933 56.5971C103.536 61.9519 107.994 62.793 111.765 64.2929C113.924 65.7788 116.096 67.2507 118.255 68.7366H118.297ZM9.84057 115.879C9.91066 116.706 9.96673 117.547 10.0368 118.374C10.0508 119.72 10.2191 121.037 11.9152 121.164C13.2329 121.262 13.6955 120.224 14.102 119.201C18.8541 118.178 22.0081 115.5 20.382 110.468C18.6158 105.029 14.5926 109.417 11.5928 109.304C11.0321 109.29 10.4433 109.977 9.86861 110.342C6.75663 110.202 5.13055 111.575 5.73332 114.785C6.29404 117.757 8.20048 116.51 9.84057 115.879ZM63.1787 66.6059C63.8235 68.302 65.2113 69.4795 66.0524 71.1617C68.5335 76.138 75.7948 77.3576 79.86 74.1054C81.0375 73.1662 81.9347 72.157 81.6403 70.601C81.3179 68.9469 80.0422 68.1899 78.5283 68.6385C71.5474 70.7131 73.5239 65.9751 74.4911 62.2463C69.8232 62.793 65.9683 63.3677 63.1787 66.6619C62.5339 66.4096 61.7909 66.2975 61.2583 65.891C58.8472 64.0967 56.2679 63.3397 53.5624 64.9377C52.3709 65.6386 52.427 67.2927 53.6045 67.7834C56.38 68.9468 59.3518 69.9281 61.9451 67.1666C62.2395 66.8582 62.7722 66.7741 63.1927 66.5919L63.1787 66.6059ZM76.9443 102.534C71.6035 102.099 67.7065 96.0575 62.9404 100.88C60.7116 103.137 60.5854 108.197 62.604 110.019C66.557 113.58 71.6315 111.085 76.6079 111.043C75.2341 106.893 70.9586 108.183 70.0755 105.113C71.9119 103.781 74.379 105.562 76.9583 102.548L76.9443 102.534ZM63.3049 83.2591C67.0757 85.7824 70.0475 87.857 73.1174 89.7775C75.4724 91.2634 77.6312 89.8476 79.6638 88.8383C81.43 87.9552 81.4721 86.0908 80.9394 84.5488C80.0142 81.8994 77.505 82.6984 75.5425 82.6003C71.7436 82.4321 67.8747 81.6611 63.3189 83.2591H63.3049ZM39.6847 111.169C34.6943 110.216 31.3721 109.473 28.0078 108.996C26.0032 108.716 24.279 109.36 24.2229 111.87C24.1809 114.071 25.3444 115.374 27.4891 115.598C31.5683 116.019 35.0588 114.603 39.6987 111.155L39.6847 111.169ZM56.5062 81.8994C54.0951 78.479 50.7869 78.5912 47.6328 78.3249C45.7404 78.1707 43.7078 78.1707 43.7078 80.82C43.7078 83.2451 45.0676 84.9693 47.5487 84.4226C50.3663 83.7918 53.5204 84.2684 56.5062 81.8994ZM59.9966 104.23C60.0667 101.889 59.3518 101.118 56.6884 101.454C53.3241 101.861 50.8429 104.118 47.7029 104.791C46.5535 105.043 45.3059 105.421 45.9227 107.02C46.4133 108.267 47.6188 108.618 48.7963 108.337C51.8803 107.622 54.6418 105.632 58.1463 106.571C59.4359 106.921 59.9546 105.492 59.9966 104.23ZM12.518 75.4932C9.20976 76.0679 9.79852 78.7173 9.77048 80.9322C9.74244 83.6236 10.149 86.3151 13.6815 86.2169C14.887 86.1889 16.4851 85.3478 17.1719 84.3666C18.1952 82.9227 16.9757 81.7452 15.5599 81.2686C13.7375 80.6518 13.5974 79.7687 14.4384 78.1706C15.4057 76.3203 14.1721 75.7035 12.518 75.5072V75.4932ZM90.5697 40.4765C86.925 36.93 82.9299 36.1309 78.5283 36.7898C77.7013 36.916 76.8742 38.0094 77.5751 38.9486C80.4207 42.7194 84.6121 41.4717 88.3969 41.6259C88.9296 41.654 89.4903 41.0792 90.5697 40.4905V40.4765ZM91.9294 83.4694C91.2005 81.6331 89.6445 80.9602 87.654 80.9041C85.4251 80.8341 84.0794 81.7172 84.2757 84.1423C84.4158 85.9926 85.3971 87.3384 87.2895 87.2683C89.5183 87.1982 91.1725 86.0207 91.9294 83.4554V83.4694ZM37.0353 78.8575C35.1008 78.9697 35.0448 80.4275 35.0728 81.7873C35.1429 84.4507 36.4606 86.1048 39.2501 86.1188C40.9043 86.1188 41.8154 85.0535 41.479 83.4554C40.9743 81.0724 39.6146 79.3341 37.0493 78.8575H37.0353ZM29.4236 77.3015C27.9097 77.2174 26.8583 77.8202 27.0966 79.1799C27.4471 81.1564 27.8956 83.4133 30.1805 84.0862C31.6244 84.5067 32.0449 83.189 32.087 81.9835C32.1851 79.8107 31.8206 77.8622 29.4096 77.3015H29.4236ZM87.3316 93.7025C90.4295 95.0342 92.8826 95.3706 95.1816 93.4501C95.8685 92.8754 95.9666 91.5157 94.9433 91.2073C92.2098 90.3943 89.7987 91.1092 87.3456 93.7025H87.3316ZM99.9897 128.481C97.3543 123.911 94.3545 123.505 90.8921 121.864C92.1397 126.799 95.2376 127.205 99.9897 128.481ZM88.0324 123.21C88.0745 121.612 87.5418 120.477 85.7475 120.407C84.514 120.365 83.2944 120.617 83.0841 122.019C82.7898 124.009 84.0374 125.033 85.8457 125.285C87.2895 125.495 87.8502 124.472 88.0324 123.196V123.21ZM114.582 118.346C111.554 117.14 109.438 116.72 107.658 118.893C107.377 119.243 107.461 120.463 107.756 120.631C110.209 122.047 112.101 120.897 114.582 118.346Z" fill="#094036"/>
<path d="M1.40224 135.491C6.04216 139.15 11.5232 138.21 16.8079 138.308C17.9013 144.616 14.2707 148.163 9.07003 150.532C10.3036 152.943 12.4343 152.789 14.0324 153.504C18.8125 155.663 21.56 154.906 21.0694 148.808C20.7469 144.869 20.9993 140.902 20.9853 136.935C21.9104 136.907 22.8216 136.893 23.7468 136.865C27.4195 141.967 29.424 136.108 32.2416 135.575C32.6902 137.902 33.1388 140.243 33.5873 142.57C25.7794 141.406 25.3448 141.743 25.3028 149.775C25.2467 159.475 25.2467 169.176 25.2187 178.876C23.3683 178.414 21.5039 177.965 19.6535 177.503C19.6535 174.292 19.6255 171.082 19.6395 167.858C19.6395 162.237 14.8734 162.854 11.6914 162.419C7.90655 161.915 8.53735 165.433 8.41119 167.844C8.31306 169.68 8.32708 171.517 8.28503 173.353C5.94404 173.311 3.61707 173.269 1.27608 173.227C0.71536 160.639 0.154644 148.051 1.40224 135.477V135.491Z" fill="#0E4A40"/>
<path d="M1510.89 131.397C1505.05 131.243 1500.22 133.71 1495.7 137.117C1493.68 138.631 1491.52 140.005 1489.3 141.224C1485.94 143.074 1483.99 142.163 1484.02 138.112C1484.03 134.173 1484.03 130.234 1484.08 126.295C1484.08 124.613 1484.45 122.412 1485.9 122.034C1494.72 119.721 1499.92 108.787 1510.82 111.632C1511.61 118.221 1511.41 124.809 1510.92 131.412L1510.89 131.397Z" fill="#125348"/>
<path d="M1329.38 213.556C1330.75 203.407 1328.91 193.118 1330.99 182.969C1331.74 179.297 1329.77 177.208 1325.66 177.979C1323.61 178.358 1321.55 178.792 1319.48 178.89C1308.1 179.423 1301.89 186.264 1302.08 198.025C1302.22 205.622 1302.18 213.22 1298.96 220.649C1298.96 210.43 1299.01 200.211 1298.93 189.992C1298.9 186.222 1299.18 182.983 1295.28 179.633C1290.91 175.876 1298.34 175.82 1299.26 173.283C1300.67 173.269 1302.07 173.241 1303.47 173.227C1307.14 168.966 1311.25 166.961 1317.19 168.881C1320.08 169.821 1323.56 168.923 1326.71 170.003C1328.88 170.746 1331.03 170.367 1331.28 167.48C1331.86 161.073 1332.31 154.653 1332.77 148.233C1332.98 145.317 1331.63 143.916 1328.67 144.182C1328.7 143.439 1328.74 142.696 1328.77 141.953C1329.8 141.967 1330.82 141.981 1331.86 141.995C1336.64 144.294 1338.46 137.299 1342.89 138.477C1338.99 144.308 1332.8 149.425 1336.99 157.737C1336.27 162.237 1339.02 163.695 1342.73 164.69C1347.85 166.064 1352.32 168.587 1355.2 173.311C1349.04 174.166 1345.31 168.461 1339.79 167.634C1338.15 167.396 1336.1 165.349 1334.97 167.998C1334.09 170.059 1336.06 171.307 1337.34 172.624C1337.51 172.792 1337.72 172.905 1337.87 173.073C1339.85 175.203 1345.26 174.25 1344.53 177.951C1343.67 182.339 1339.43 178.736 1336.76 179.325C1335.46 179.619 1334.48 180.418 1334.62 181.652C1335.74 191.548 1330.95 201.361 1334.21 211.272C1333.54 214.033 1331.48 213.823 1329.38 213.528V213.556ZM1305.54 182.058C1304.86 181.399 1304.48 180.755 1304.04 180.698C1303.05 180.572 1302.35 181.259 1302.38 182.226C1302.38 182.703 1303.22 183.614 1303.33 183.558C1304.03 183.25 1304.65 182.703 1305.54 182.044V182.058Z" fill="#0E4A40"/>
<path d="M1430.53 19.5063C1430.57 19.1839 1430.61 18.8615 1430.67 18.5391C1430.25 16.5345 1429.83 14.544 1429.41 12.5534C1432.63 11.6563 1435.44 12.175 1436.49 6.59582C1437.72 0.0915167 1458.35 -1.1701 1462.69 4.3109C1464.45 6.53975 1464.52 8.02567 1461.13 9.37138C1455.13 11.7404 1448.99 12.2731 1442.72 12.4974C1440.93 12.5674 1438.53 12.203 1438.03 14.5019C1437.44 17.1934 1439.92 17.8382 1441.83 18.6933C1447.76 21.3146 1453.8 21.4548 1459.94 19.5764C1460.99 23.2351 1454.49 22.4921 1455.97 26.3891L1455.78 26.5713C1452.4 26.6554 1450.18 23.8519 1447.1 23.0949C1444.71 22.5061 1442.63 21.7212 1441.95 25.0995C1438.34 22.8426 1435.08 19.8568 1430.53 19.5063Z" fill="#0E4A40"/>
<path d="M1467.06 149.424C1467.76 141.532 1465.5 133.486 1468.43 125.72C1469.89 125.51 1470.98 124.781 1471.85 123.589C1473.66 121.136 1476.31 121.164 1478.81 121.823C1481.88 122.636 1481.04 125.44 1481.19 127.641C1481.29 129.028 1481.22 130.416 1481.22 131.818C1481.23 141.331 1476.5 147.2 1467.05 149.424H1467.06Z" fill="#125348"/>
<path d="M593.926 323.331C596.323 323.134 598.874 320.373 601.005 322.714C603.36 325.307 600.893 327.956 599.631 330.241C594.851 338.848 586.342 344.862 582.683 354.296C579.655 357.31 576.333 358.039 572.114 356.749C568.189 355.544 564.054 354.829 559.848 355.221C555.531 355.628 552.208 354.969 549.517 350.469C546.279 345.058 540.728 346.853 535.793 348.493C533.102 347.105 530.397 345.703 527.691 344.315C527.285 340.292 523.612 341.175 521.299 340.362C518.79 339.479 516.309 339.115 516.617 335.652C519.855 335.47 523.107 335.288 526.345 335.106C518.79 330.788 511.823 324.564 502.711 330.129C500.552 328.601 505.501 326.232 502.319 325.279C500.538 324.746 500.062 326.975 499.823 328.573C495.744 331.125 494.272 334.825 494.385 339.577C494.497 344.343 494.076 349.123 493.88 353.904C491.693 357.394 488.721 359.581 484.404 359.441C483.549 358.067 482.708 356.693 481.853 355.319C480.507 350.273 480.254 345.1 480.156 339.928C480.198 339.059 480.226 338.176 480.269 337.292C480.297 336.269 480.325 335.246 480.353 334.236C483.016 326.134 480.745 322.91 471.591 321.789C469.461 320.933 467.414 319.728 465.199 319.307C461.092 318.536 462.284 320.723 463.559 322.756C461.821 325.125 463.573 326.765 464.751 328.545C457.475 329.064 450.733 325.826 443.486 325.672C430.253 325.377 417.146 326.036 403.478 329.919C405.511 323.709 410.936 321.508 413.922 316.966C409.674 315.887 406.254 316.364 402.806 316.756C400.394 317.022 396.876 318.607 395.839 316.083C394.689 313.294 398.53 312.411 400.437 310.939C401.348 310.238 402.343 309.453 403.408 309.158C407.838 307.925 405.09 305.514 404.46 303.439C407.277 301.897 410.081 300.369 412.898 298.827C427.477 294.005 442 293.066 456.466 300.145C447.425 290.529 436.21 288.104 424.043 288.468C422.627 288.356 421.211 288.258 419.795 288.146C419.753 287.164 419.725 286.197 419.683 285.216C425.879 280.239 433.547 280.085 442.308 279.3C432.299 272.824 421.94 270.595 412.576 265.591C424.141 258.329 435.678 260.124 449.023 265.591C445.112 258.021 442.392 252.75 439.673 247.48C442.434 244.83 444.887 247.017 447.326 248.054C453.522 250.676 458.653 255.049 463.966 259.591C465.396 255.722 463.195 252.905 463.587 249.919C463.783 248.405 462.844 246.33 464.765 245.559C466.601 244.83 467.596 246.723 468.69 247.816C470.134 249.26 471.409 250.9 473.274 253.045C475.811 247.774 473.26 242.531 476.049 237.933C480.899 241.76 481.334 247.83 485.063 252.975C486.394 247.914 487.46 243.821 488.749 238.957C493.417 243.204 492.324 248.685 494.805 253.227C498.688 249.386 497.735 243.064 502.571 239.055C507.085 248.909 504.057 259.03 505.515 269.053C510.533 267.82 512.061 262.367 517.108 260.544C516.743 269.474 521.005 268.591 526.528 265.296C528.392 264.189 530.537 264.091 532.415 265.633C530.312 276.931 522.518 284.908 515.986 293.613C513.925 296.36 511.893 299.136 510.197 302.682C523.5 296.472 536.48 289.533 553.891 293.795C546.335 297.327 540.489 299.879 534.854 302.822C532.948 303.818 529.093 303.818 530.312 307.588C531.21 310.364 540.111 312.803 542.256 311.205C545.76 308.607 548.98 308.378 551.914 310.518C552.208 310.21 552.629 309.957 552.769 309.593C553.947 306.537 551.031 301.294 554.956 300.551C557.886 299.991 558.138 305.514 559.68 308.275C560.339 309.439 560.942 310.616 561.965 312.523C563.044 308.247 563.899 304.841 564.923 300.762C569.212 304.028 567.81 308.864 570.446 311.752C573.333 308.794 572.661 303.748 577.16 300.706C577.987 305.29 578.716 309.271 579.431 313.238C579.137 317.92 578.828 322.616 578.534 327.298C578.8 328.279 579.109 327.97 579.431 327.312C582.557 324.592 583.328 319.644 587.968 318.368C588.585 318.452 589.216 318.536 589.832 318.621C589.776 319.644 589.72 320.653 589.664 321.676C589.44 323.204 587.646 325.307 589.061 326.106C591.318 327.396 592.44 324.62 593.912 323.345L593.926 323.331ZM515.089 316.167C518.958 314.934 521.327 314.205 523.682 313.42C525.042 312.971 526.514 312.341 525.869 310.56C525.238 308.836 523.654 309.074 522.364 309.691C519.925 310.869 517.374 312.004 515.089 316.167Z" fill="#094036"/>
<path d="M378.147 278.29C375.778 278.29 373.423 278.262 371.054 278.262C371.208 266.754 375.274 255.918 376.759 244.633C377.222 243.077 377.713 241.535 378.147 239.979C380.404 231.947 382.703 223.929 384.82 215.855C385.395 213.654 385.885 211.088 383.572 209.448C381.217 207.78 379.661 210.037 378.091 211.13C374.853 213.387 371.839 215.939 368.699 218.322C367.508 219.233 366.372 221.279 364.676 219.864C363.26 218.686 364.27 216.836 364.774 215.308C366.092 211.327 369.092 208.341 371.923 204.29C362.854 204.584 355.326 208.565 347.168 208.341C354.499 197.505 365.377 194.393 378.035 194.673C372.47 191.884 367.031 190.034 361.648 188.001C360.274 187.482 357.821 187.707 357.933 185.576C358.06 183.123 360.471 183.347 362.265 183.137C369.386 182.282 376.255 183.669 384.217 187.174C381.315 181.623 379.591 177.614 376.255 174.572C376.872 172.497 376.409 170.717 374.769 169.273C374.895 168.698 375.021 168.11 375.161 167.535C376.9 167.731 378.638 167.927 380.376 168.124C384.231 171.376 388.086 174.628 391.562 177.558C391.871 173.408 388.254 168.488 390.637 163.315C391.829 165.474 394.296 165.306 396.104 166.329C398.459 172.315 401.137 178.132 400.38 184.959C399.861 189.669 403.225 187.735 405.51 187.132C416.837 184.16 427.448 185.001 436.742 192.935C434.051 194.099 430.897 192.29 428.317 194.197C421.392 193.959 414.51 194.127 406.463 196.51C415.365 198.781 421.631 202.93 425.724 209.855C426.888 211.831 427.658 214.074 428.331 216.289C428.71 217.565 428.836 219.275 427.448 220.088C425.92 220.985 424.911 219.555 423.888 218.672C418.967 214.383 414.173 209.911 408.033 207.374C405.805 206.449 403.197 204.122 401.095 206.813C399.272 209.126 398.277 212.014 400.282 215.21C403.996 221.153 404.893 227.826 404.375 234.723C404.277 236.096 404.221 237.554 401.669 238.325C398.571 230.601 395.431 222.779 392.291 214.957C391.703 214.943 391.114 214.929 390.525 214.915C386.768 229.27 384.105 243.862 382.423 258.665C382.311 259.59 382.198 260.516 382.086 261.441C380.6 263.095 380.769 265.085 381.021 267.076C380.923 268.001 380.839 268.926 380.741 269.866C379.829 270.637 379.591 271.59 379.956 272.711C379.745 274.561 379.535 276.412 379.325 278.248C378.918 278.262 378.512 278.276 378.105 278.304L378.147 278.29Z" fill="#0E4A40"/>
<path d="M1355.2 173.338C1352.34 168.614 1347.86 166.091 1342.73 164.717C1339.02 163.722 1336.27 162.264 1336.99 157.765C1345.27 152.69 1354.84 150.672 1363.56 146.578C1367.29 144.826 1366.59 143.172 1364.92 140.803C1363.23 138.42 1360.55 138.434 1358.01 138.21C1356.61 134.747 1355.21 134.761 1353.81 138.21C1350.18 138.308 1346.55 138.406 1342.9 138.504C1338.47 137.312 1336.65 144.321 1331.87 142.022C1332.23 137.425 1326.6 133.64 1321.19 135.028C1319.74 135.392 1317.47 135.378 1317.26 137.312C1317.04 139.401 1319.21 139.527 1320.71 139.934C1323.39 140.663 1326.09 141.308 1328.79 141.98C1328.76 142.723 1328.72 143.466 1328.69 144.209C1320.8 145.779 1312.62 144.63 1304.8 146.732C1304.24 143.606 1301.77 143.004 1299.22 142.513C1298.32 141.882 1297.44 141.237 1296.54 140.607C1296.36 138.055 1296.4 135.336 1292.68 135.434C1292.04 135.224 1291.41 135 1290.78 134.789C1290.03 132.911 1288.62 132.785 1286.97 133.373C1282.99 131.93 1280.41 136.093 1276.75 135.911C1275.35 135.224 1273.43 135.392 1272.7 133.486C1273.74 131.565 1276.01 132.252 1277.51 131.299C1279.43 130.093 1282.72 130.121 1283.02 127.57C1283.35 124.612 1280.07 125.439 1278.32 124.668C1276.12 123.701 1276.43 122.355 1277.72 120.855C1280.72 117.351 1284.62 118.052 1287.97 121.654C1290.84 124.738 1295.94 125.706 1299.24 124.963C1302.17 124.304 1300.55 118.907 1300.74 115.599C1300.88 113.23 1299 113.118 1297.3 113.79C1295.06 114.688 1292.8 115.136 1290.49 114.365C1286.2 112.949 1281.42 113.384 1279.2 107.174C1278.08 104.034 1273.26 100.852 1268.2 100.936C1265.14 100.978 1263.28 98.4268 1263.48 95.8615C1263.73 92.6234 1266.74 94.4457 1268.58 94.3476C1270.18 94.2495 1271.8 94.4737 1273.4 94.5999C1276.85 94.8662 1281.15 97.1792 1283.3 93.2682C1285.12 89.932 1279.36 83.5678 1275 82.3062C1269.25 80.6381 1263.94 77.484 1257.64 77.7644C1256.09 77.8345 1255.12 76.4047 1255.29 74.8487C1255.65 71.7087 1257.1 67.8677 1259.9 67.6575C1266.74 67.1248 1271.28 61.1952 1278.64 61.1672C1282.08 61.1532 1286.26 57.5506 1290.77 56.7235C1293.61 56.2049 1291.78 53.934 1290.57 52.4761C1289.61 51.3126 1289.17 49.9949 1290.18 48.6632C1291.47 46.9951 1293.11 47.4297 1294.54 48.3689C1299.1 51.3687 1304.76 48.5651 1309.52 51.5229C1311.68 52.8546 1313.17 49.294 1315.03 48.0605C1317.39 46.5045 1320.43 46.0699 1322.01 48.2847C1323.75 50.6958 1320.19 51.3687 1319.03 52.8405C1318.47 53.5414 1317.49 53.8919 1316.84 54.5507C1314.67 56.7515 1308.22 56.6114 1310 59.6813C1311.73 62.6531 1317.44 66.9986 1321.31 65.0782C1329.75 60.8868 1338.5 63.5923 1346.9 61.8961C1349.91 64.1811 1353.88 65.2464 1352.9 70.9657C1352.57 72.8441 1355.2 78.5634 1360.89 77.1756C1363.28 76.6009 1366.35 76.9794 1365.76 80.9885C1365.4 83.5398 1367.29 83.4276 1368.82 83.75C1371.46 84.3108 1371.95 86.2032 1371.83 88.4881C1369.62 88.6003 1366.35 86.1331 1365.44 89.5815C1363.61 96.5624 1366.94 101.427 1374.44 104.006C1376.43 104.16 1378.42 104.314 1380.43 104.469C1381.76 105.127 1381.73 106.347 1381.7 107.552C1376.64 111.267 1371.58 114.968 1366.52 118.683C1361.99 114.407 1355.94 116.314 1350.68 115.024C1346.81 114.071 1348.28 118.542 1347.75 120.589C1347.05 123.253 1348.23 124.206 1351.23 123.575C1355.7 122.636 1360.31 122.313 1364.87 121.739C1364.78 123.631 1365.34 125.313 1366.51 126.799C1366.63 127.794 1366.48 129.154 1367.98 128.958C1368.43 128.902 1368.74 127.682 1369.11 126.981C1370.49 126.939 1371.86 126.897 1373.24 126.855C1375.97 130.233 1379.59 130.107 1383.41 129.603C1388.87 128.888 1392.26 131.046 1392.97 136.794C1393.17 138.364 1393.34 140.172 1394.19 141.392C1396.87 145.176 1394.57 147.335 1392.03 149.62C1390.55 150.966 1387.81 150.728 1387.31 153.321C1386.38 153.475 1385.47 153.629 1384.55 153.769C1383.02 152.101 1382.22 152.914 1381.7 154.625C1377.5 154.947 1373.81 156.363 1370.9 159.531C1368.62 159.264 1366.66 159.475 1366.4 162.376C1364.66 163.806 1364.8 165.755 1364.92 167.717C1362.69 170.002 1361.26 173.296 1357.47 173.591C1356.68 173.507 1355.9 173.437 1355.11 173.352L1355.2 173.338ZM1290.68 80.1755C1287.61 80.2455 1284.25 82.0258 1284.5 86.0069C1284.71 89.3712 1285.32 94.7681 1289.4 94.9784C1293.42 95.2027 1296.28 90.4646 1297.48 86.9461C1298.82 83.0772 1295.76 80.582 1290.7 80.1755H1290.68ZM1331.04 120.94C1329.79 119.804 1329.33 119.005 1328.84 118.991C1320.98 118.739 1313.44 117.575 1306.97 112.501C1305.95 111.702 1304.59 112.417 1304.11 113.566C1303.48 115.066 1303.24 116.804 1304.17 118.248C1306.86 122.453 1318.45 125.902 1323.01 123.533C1325.29 122.341 1327.57 121.458 1331.04 120.926V120.94ZM1286.24 76.0823C1290.04 74.1338 1296.91 77.7784 1297.48 70.1387C1297.62 68.2883 1296.56 65.2885 1294.02 66.0454C1289.61 67.3771 1285.86 70.3489 1283.41 74.2599C1282.58 75.5776 1284.76 76.1944 1286.24 76.0682V76.0823ZM1327.93 103.501C1326.02 103.585 1323.77 103.684 1324.3 105.828C1325.32 109.921 1327.19 113.664 1332.22 114.281C1334.86 114.603 1335.5 113.104 1335.44 111.001C1335.3 106.01 1331.49 104.721 1327.93 103.501ZM1343.56 122.874C1344.14 119.454 1344.5 116.314 1345.21 113.258C1346.1 109.529 1342.8 109.753 1341.09 109.122C1338.84 108.295 1337.57 110.118 1337.74 112.262C1338.07 116.468 1337.83 121.122 1343.56 122.874ZM1354.19 93.128C1350.92 89.7217 1347.16 87.9274 1342.99 87.0162C1341.67 86.7358 1340.01 86.1611 1339.55 87.9554C1339.1 89.7217 1340.87 90.1983 1342.12 90.4927C1346.11 91.4599 1350.15 92.2589 1354.17 93.114L1354.19 93.128ZM1341.99 81.9417C1343.63 81.6614 1346.71 81.9978 1347.5 79.0821C1348.05 77.0354 1345.38 76.4467 1344.18 76.9794C1341.91 77.9887 1338.14 75.6477 1337.38 79.3905C1336.89 81.7875 1339.28 81.9978 1341.99 81.9417ZM1335.23 77.3298C1335.07 74.5543 1333.45 73.8814 1331 73.9796C1329.04 74.0637 1327.55 74.9608 1327.92 76.7972C1328.41 79.2083 1329.53 82.0258 1332.42 82.1099C1335.42 82.194 1333.86 78.7036 1335.22 77.3298H1335.23Z" fill="#094036"/>
<path d="M1429.41 12.554C1429.83 14.5446 1430.25 16.5491 1430.67 18.5396C1428.35 16.9977 1426.04 15.4417 1423.73 13.8997C1423.76 13.3811 1423.79 12.8624 1423.81 12.3438C1425.68 12.4138 1427.54 12.4839 1429.41 12.554Z" fill="#094036"/>
<path d="M321.656 320.19C320.716 306.691 319.777 293.192 318.852 279.692C318.824 278.263 318.796 276.847 318.768 275.417C318.866 263.165 317.478 251.054 315.193 238.578C310.862 244.69 307.287 251.082 304.946 258.147C302.129 258.287 302.731 256.044 302.367 254.46C303.615 248.657 303.53 242.419 308.212 237.765C310.315 235.676 308.829 233.321 307.848 231.345C306.446 228.513 304.147 230.406 302.395 230.924C297.727 232.326 293.353 234.415 289.863 237.961C286.008 238.228 284.901 241.227 284.424 244.157C283.863 247.549 284.06 251.054 283.933 254.516C276.896 250.998 269.649 249.133 261.869 251.853C264.21 246.218 271.051 242.531 276.967 245.825C281.536 248.362 281.354 245.04 281.691 243.526C284.032 232.536 290.606 225.457 301.708 221.757C295.05 217.187 287.438 218.911 279.644 216.528C290.606 208.678 300.433 211.678 310.581 215.757C310.792 209.659 311.044 204.01 315.039 199.594C316.525 197.954 318.081 195.123 320.59 196.356C323.156 197.604 320.758 200.015 320.506 201.907C320.338 203.211 319.903 204.486 319.441 206.407C324.277 205.58 326.73 200.253 331.636 201.641C332.449 203.8 329.996 204.879 330.094 206.729C327.795 208.397 324.894 210.668 325.763 213.234C326.814 216.374 330.193 213.514 332.548 213.836C337.244 214.481 342.472 212.715 346.678 217.131C341.337 220.327 334.959 219.037 329.87 222.752C339.122 225.555 348.934 226.565 351.57 237.779C346.033 235.816 340.496 233.868 333.669 231.457C335.505 236.265 336.837 239.756 338.155 243.232C337.944 244.353 337.734 245.489 337.524 246.61C333.963 243.26 330.417 239.882 326.814 236.587C325.412 235.298 323.73 234.134 321.824 235.41C320.212 236.489 320.702 238.27 320.969 239.882C321.6 243.779 322.174 247.69 322.763 251.601C322.286 252.722 322.553 253.661 323.492 254.432C323.744 257.222 323.983 260.011 324.221 262.801C323.716 263.894 323.913 264.848 324.796 265.661C324.88 270.833 324.599 276.034 326.436 281.024C326.688 294.131 329.267 307.112 328.805 320.26C326.996 321.129 325.188 315.256 323.366 320.26C322.805 320.232 322.244 320.204 321.67 320.19H321.656Z" fill="#0E4A40"/>
<path d="M75.8665 190.188C76.6655 171.993 77.4925 153.784 78.2495 135.588C78.3476 133.289 78.1514 130.977 78.0953 128.664C82.3988 130.023 86.7163 131.383 91.0198 132.729C90.6834 151.933 89.2255 171.068 87.0247 190.146C85.0342 188.899 83.5062 181.735 80.7587 189.81C79.9457 192.207 77.5346 190.006 75.8665 190.202V190.188Z" fill="#125348"/>
<path d="M54.9514 149.536C56.6756 154.218 56.8018 158.886 54.7552 163.526C52.8908 162.363 53.5917 160.162 51.8114 156.658C51.8114 166.905 51.8114 175.259 51.8114 183.614C51.8114 193.945 51.6011 194.071 41.8867 190.132C42.4054 172.848 40.9756 155.522 43.3586 138.294C48.5452 138.953 53.6477 139.57 52.1198 147.097C51.8114 148.597 53.5356 149.242 54.9514 149.55V149.536Z" fill="#125348"/>
<path d="M37.3023 186.937C37.4425 173.76 37.5827 160.597 37.7369 147.42C37.7509 145.542 37.6387 143.719 36.4192 142.163C37.5967 138.841 40.8488 139.206 43.3721 138.28C40.989 155.508 42.4188 172.835 41.9002 190.119C40.3722 189.053 38.8443 188.002 37.3163 186.937H37.3023Z" fill="#0E4A40"/>
<path d="M8.27112 173.367C8.31317 171.531 8.28513 169.695 8.39728 167.858C8.53746 165.447 7.90665 161.929 11.6775 162.433C14.8595 162.868 19.6396 162.237 19.6256 167.872C19.6256 171.083 19.6256 174.293 19.6396 177.517C15.6165 176.774 10.1495 179.97 8.27112 173.367Z" fill="#125348"/>
<path d="M20.9858 136.948C20.9858 140.901 20.7475 144.883 21.0699 148.822C21.5745 154.933 18.813 155.676 14.0329 153.518C12.4349 152.789 10.3041 152.957 9.07056 150.546C14.2712 148.177 17.9018 144.63 16.8084 138.322C18.1962 137.874 19.598 137.411 20.9858 136.962V136.948Z" fill="#125348"/>
<path d="M25.3451 18.118C26.2282 18.3423 27.1254 18.5666 28.0085 18.7909C29.5645 19.7721 31.3167 20.5431 32.6484 21.7627C35.1436 24.0616 35.7744 26.3465 31.2186 26.2764C28.4711 26.2344 27.2656 28.4632 25.1769 29.2763C22.3873 28.9118 19.5978 28.7156 16.8643 29.6968C13.5561 29.5006 10.2478 29.3183 6.95363 29.1221C6.53309 26.8372 6.11255 24.5522 5.69202 22.2673C10.0095 23.8373 12.1683 20.7113 14.6214 18.2021C15.3924 17.9918 16.1634 17.7956 16.9344 17.5853C19.738 17.7676 22.5556 17.9358 25.3732 18.118H25.3451Z" fill="#094036"/>
<path d="M1387.38 153.294C1387.89 150.7 1390.62 150.953 1392.11 149.607C1394.64 147.322 1396.93 145.149 1394.27 141.378C1393.41 140.159 1393.23 138.35 1393.05 136.78C1392.33 131.033 1388.95 128.874 1383.49 129.589C1379.67 130.094 1376.04 130.22 1373.31 126.842C1377.6 126.519 1381.97 125.538 1386.16 126.043C1391.25 126.66 1396.49 128.202 1395.7 135.393C1395.48 137.257 1396.07 138.869 1397.43 140.439C1402.79 146.677 1401.99 149.341 1394.17 152.088C1391.99 152.845 1389.82 153.826 1387.41 153.294H1387.38Z" fill="#0E4A40"/>
<path d="M1299.22 142.499C1301.77 143.004 1304.24 143.593 1304.8 146.719C1302.22 149.859 1309.15 150.756 1306.6 153.531C1301.09 159.503 1303.99 166.596 1303.48 173.241C1302.08 173.255 1300.68 173.283 1299.28 173.297C1299.28 169.82 1299.05 166.316 1299.29 162.853C1299.71 156.966 1299.24 151.975 1291.51 151.933C1290.31 151.933 1289.03 151.162 1289.09 149.915C1289.17 148.008 1290.97 148.247 1292.27 148.121C1295.84 147.784 1299.53 147.63 1299.21 142.499H1299.22Z" fill="#125348"/>
<path d="M128.754 206.869C128.46 205.327 127.507 204.388 126.077 203.87C126.007 201.851 125.656 200.043 123.077 199.945H112.031C119.278 198.024 113.489 192.291 117.68 190.104C120.946 191.954 138.441 194.814 142.029 193.777C143.501 193.356 145.982 193.58 145.87 190.959C136.731 188.282 127.591 186.305 118.073 187.132C116.18 184.847 115.003 181.918 112.045 180.6C110.489 179.913 107.77 179.899 108.47 177.348C109.101 175.063 111.596 176.114 113.307 175.932C114.218 175.834 115.157 175.96 116.082 175.988C117.47 176.016 118.844 176.1 120.231 176.086C123.904 176.03 127.24 174.236 126.806 170.661C126.301 166.372 122.53 167.759 119.601 168.601C118.507 168.909 117.33 168.951 116.194 169.105C112.844 168.18 109.508 167.157 106.129 166.344C104.195 165.867 102.401 165.292 102.317 162.993C102.247 160.835 103.774 159.587 105.583 158.914C109.059 157.639 113.18 157.33 116.026 155.241C122.418 150.545 129.147 147.714 137.095 147.504C138.441 147.476 139.983 146.55 140.838 147.938C141.777 149.452 140.375 150.377 139.268 151.288C137.964 152.354 135.076 152.788 136.422 155.185C137.754 157.554 140.529 158.424 143.151 157.723C146.557 156.811 149.879 156.167 153.44 156.489C157.057 156.811 160.491 156.924 161.262 161.606C161.556 163.344 163.238 164.129 164.808 164.662C169.476 166.246 172.028 168.278 169.659 174.068C168.005 178.105 170.598 181.175 175.28 181.679C176.597 181.819 178.392 181.595 178.476 183.502C178.532 184.707 177.354 185.646 176.163 185.759C172.827 186.081 172.07 191.281 167.962 189.978C165.075 187.3 160.197 190.328 158.262 187.721C155.501 183.992 151.057 184.987 148.113 182.464C147.23 181.707 145.898 181.595 144.987 182.661C144.09 183.712 144.3 185.352 145.225 185.73C150.328 187.777 152.977 194.604 159.972 193.048C162.664 192.445 165.509 193.006 168.103 194.239C169.995 195.221 172.014 195.809 174.144 195.529C181.055 194.632 186.074 195.711 188.625 203.771C189.943 207.949 189.34 209.295 186.046 210.458C183.424 211.383 180.579 211.622 177.957 212.547C173.514 214.117 169.084 215.911 169.49 221.911C169.799 226.452 167.78 226.312 164.43 224.84C160.617 223.158 156.608 221.953 152.669 220.537C152.108 218.252 148.898 216.514 151.267 213.626C156.117 211.523 160.968 209.435 165.79 207.29C166.953 206.771 168.902 206.645 168.313 204.711C167.878 203.267 166.308 202.846 164.864 202.846C161.388 202.846 157.912 202.944 154.435 203.015C150.468 202.902 146.739 201.893 143.123 200.239C141.875 199.664 140.221 199.65 139.38 201.024C138.413 202.58 139.492 203.575 140.894 204.192C142.071 204.711 142.576 205.692 142.828 206.855C139.282 207.024 135.735 207.206 132.203 207.374C131.067 207.206 129.918 207.038 128.782 206.869H128.754ZM152.697 169.077C154.547 168.993 157.617 168.741 157.197 167.031C156.215 163.092 151.323 165.054 148.702 162.853C147.707 162.026 145.898 163.554 146.249 165.152C146.992 168.502 149.767 169.035 152.697 169.077ZM119.727 164.325C121.9 164.031 123.652 163.764 125.404 163.568C127.395 163.344 129.68 163.764 130.703 161.395C130.871 161.017 130.296 159.853 129.932 159.783C127.577 159.349 125.25 157.33 122.811 159.209C121.423 160.274 119.755 161.283 119.713 164.325H119.727Z" fill="#094036"/>
</svg>
