<svg width="1512" height="449" viewBox="0 0 1512 449" fill="none" xmlns="http://www.w3.org/2000/svg">
<path d="M145.774 109.552L14.903 35.9294C8.23696 32.1793 0 36.9964 0 44.6449V439C0 444.523 4.47711 449 9.99996 449H1502C1507.52 449 1512 444.523 1512 439V10.6968C1512 3.19416 1504.04 -1.6364 1497.39 1.82391L1422.27 40.8717L1349 89.8388C1348 90.5052 1346.89 90.9867 1345.72 91.2605L1265.62 110.046C1263.43 110.558 1261.48 111.79 1260.08 113.544L1216.56 168.082C1215.15 169.846 1213.19 171.082 1210.99 171.589L1173.6 180.205C1171.91 180.596 1170.34 181.422 1169.06 182.601L1121.89 226.136C1119.84 228.031 1117.09 228.981 1114.3 228.754L939.659 214.52C936.546 214.267 933.493 215.482 931.406 217.807L901.805 250.778C899.908 252.891 897.203 254.098 894.364 254.098H857.807C853.683 254.098 849.982 256.629 848.487 260.472L834.005 297.698C832.51 301.541 828.809 304.072 824.685 304.072H769.812C769.081 304.072 768.352 304.153 767.638 304.312L729.741 312.754C726.116 313.562 722.341 312.293 719.939 309.46L675.992 257.63C674.092 255.389 671.303 254.098 668.365 254.098H652.583C650.308 254.098 648.101 253.322 646.326 251.899L579.876 198.607C576.536 195.929 571.862 195.674 568.25 197.972L544.6 213.026C543.467 213.746 542.202 214.232 540.878 214.453L454.54 228.878C453.619 229.032 452.723 229.314 451.88 229.717L400.807 254.098L371.465 266.353C367.542 267.992 363.011 266.971 360.17 263.806L329.02 229.11L297.614 194.128L265.176 147C263.906 145.156 262.054 143.791 259.916 143.124L226.895 132.825C226.185 132.604 225.503 132.304 224.86 131.932L190.764 112.183C189.241 111.301 187.512 110.837 185.752 110.837H150.677C148.96 110.837 147.271 110.394 145.774 109.552Z" fill="#34A591"/>
</svg>
