<svg width="1512" height="534" viewBox="0 0 1512 534" fill="none" xmlns="http://www.w3.org/2000/svg">
<path d="M165.102 173.81L13.226 122.048C6.73852 119.837 0 124.66 0 131.513V523.943C0 529.465 4.47712 533.943 9.99997 533.943H1499.04C1504.56 533.943 1509.04 529.465 1509.04 523.943V126.343C1509.04 119.109 1501.59 114.268 1494.98 117.202L1378.15 169.042L1272.58 212.414C1271.84 212.72 1271.13 213.114 1270.48 213.589L1223.29 248.068C1222.42 248.709 1221.44 249.202 1220.4 249.529L1113.74 283.198C1111.88 283.787 1109.88 283.815 1107.99 283.279L1080.08 275.335L900.738 249.501C898.637 249.199 896.495 249.572 894.62 250.568L867.721 264.861C865.646 265.964 863.249 266.3 860.95 265.812L786.703 250.031C783.741 249.402 780.653 250.148 778.306 252.062L773.283 256.156C771.137 257.905 768.362 258.686 765.619 258.313L699.45 249.324C698.051 249.134 696.627 249.242 695.273 249.642L637.934 266.568L550.805 291.975C548.814 292.555 546.691 292.503 544.732 291.823L498.741 275.886C497.688 275.521 496.581 275.335 495.466 275.335H450.218C449.248 275.335 448.283 275.194 447.354 274.916L362.166 249.454C361.237 249.177 360.273 249.036 359.303 249.036H298.738C296.191 249.036 293.74 248.064 291.885 246.318L276.718 232.047C275.572 230.969 274.188 230.176 272.677 229.734L256.277 224.928L195.369 200.442C194.19 199.968 193.112 199.274 192.193 198.396L168.782 176.043C167.732 175.04 166.476 174.278 165.102 173.81Z" fill="#159888"/>
<path d="M256.599 244.691C256.192 244.691 255.858 245.024 255.858 245.432C255.858 245.839 257.525 246.172 259.562 246.172C261.599 246.172 263.266 245.839 263.266 245.432C263.266 245.024 262.752 244.691 262.125 244.691C261.172 244.691 261.019 243.682 261.199 238.58C261.366 233.824 261.653 232.468 262.492 232.468C263.084 232.468 263.801 233.302 264.085 234.32L264.6 236.172L264.674 234.135C264.714 233.015 265.1 232.098 265.532 232.098C265.963 232.098 266.088 231.729 265.809 231.278C265.464 230.719 265.833 230.626 266.965 230.985C268.187 231.373 268.539 231.248 268.295 230.509C268.112 229.957 266.823 229.333 265.429 229.122C263.081 228.767 263.004 228.673 264.377 227.848C265.823 226.979 265.818 226.957 264.192 226.935C262.98 226.919 262.511 226.458 262.473 225.246C262.423 223.656 262.392 223.647 261.784 225.061C261.384 225.993 261.128 222.924 261.096 216.78C261.053 208.844 261.261 206.8 262.208 205.854C264.049 204.012 267.999 204.405 270.728 206.702C272.828 208.468 273.014 208.518 272.261 207.11C271.789 206.228 270.664 204.99 269.762 204.358L268.122 203.208H270.175C271.304 203.208 273.212 203.717 274.414 204.339C276.821 205.583 276.987 205.281 275.785 201.833C274.931 199.384 273.964 198.934 268.822 198.591L265.858 198.394L268.364 197.177C271.349 195.728 274.782 196.404 276.785 198.836L278.081 200.41V198.846C278.081 194.325 270.979 192.744 265.962 196.149C262.687 198.371 262.433 197.261 265.512 194.182C267.011 192.683 268.242 192.063 269.215 192.318C271.114 192.815 271.098 191.636 269.192 190.616C267.135 189.515 267.33 188.852 270.118 187.464C272.487 186.285 272.494 186.265 270.592 186.218C269.528 186.192 267.406 187.021 265.875 188.06C264.344 189.098 262.945 189.801 262.765 189.621C262.585 189.441 262.962 188.04 263.603 186.508C264.243 184.975 264.634 183.588 264.471 183.426C264.176 183.13 261.639 187.038 260.766 189.134C260.511 189.745 260.427 188.434 260.578 186.22C260.816 182.727 260.722 182.373 259.867 183.542C259.325 184.283 258.669 186.312 258.408 188.051L257.934 191.212L255.311 189.432C252.613 187.602 249.932 187.084 249.932 188.393C249.932 188.801 250.564 189.134 251.337 189.134C252.769 189.134 257.34 193.725 257.34 195.163C257.34 195.598 256.162 194.92 254.721 193.655C252.944 192.095 251.331 191.356 249.701 191.356C247.226 191.356 244.006 193.086 244.006 194.415C244.006 194.829 244.851 194.503 245.883 193.691C247.378 192.516 248.222 192.348 250.029 192.866C254.756 194.221 255.798 196.464 251.599 196.243C250.071 196.163 247.821 196.329 246.599 196.614L244.377 197.131L246.414 197.207C248.448 197.282 249.111 198.269 247.71 199.134C247.303 199.386 246.969 199.964 246.969 200.418C246.969 200.873 247.799 200.465 248.814 199.512C250.486 197.94 250.849 197.871 252.703 198.766L254.747 199.754L251.83 200.276C250.184 200.571 248.328 201.52 247.571 202.456C245.611 204.876 245.93 205.657 248.266 204.154L250.303 202.844L248.266 205.305C247.145 206.659 246.239 208.158 246.252 208.636C246.265 209.114 246.959 208.588 247.795 207.468C249.876 204.679 250.645 204.913 250.23 208.209L249.881 210.986L251.22 207.653C252.282 205.007 252.968 204.272 254.542 204.089C255.633 203.962 257.209 204.224 258.044 204.67C259.467 205.432 259.562 206.155 259.562 216.198C259.562 226.616 259.519 226.913 257.994 226.913C256.752 226.913 256.513 226.58 256.845 225.31C257.232 223.833 257.171 223.801 256.064 224.908C254.958 226.014 254.789 226.009 253.903 224.844C253.043 223.711 252.94 223.794 252.919 225.642C252.898 227.45 252.718 227.611 251.462 226.939C249.078 225.663 247.932 226.119 250.117 227.474C252.898 229.198 252.674 229.867 249.488 229.35C247.63 229.048 246.622 229.231 246.166 229.952C245.123 231.598 245.369 231.99 247.154 231.53C248.648 231.145 248.714 231.231 247.79 232.357C246.903 233.439 246.911 233.555 247.852 233.194C248.701 232.868 248.873 233.263 248.623 234.962C248.447 236.165 248.659 237.763 249.095 238.513C249.801 239.728 249.89 239.662 249.91 237.899C249.943 234.975 250.668 233.579 252.155 233.579C253.598 233.579 254.377 234.988 254.377 237.599C254.377 238.521 255.043 239.879 255.858 240.617C257.4 242.012 257.887 244.691 256.599 244.691Z" fill="#159888"/>
<path fill-rule="evenodd" clip-rule="evenodd" d="M205.29 216.615C205.29 217.765 206.03 218.046 209.649 218.268C212.046 218.415 214.461 218.432 215.016 218.306C215.572 218.179 216.28 218.076 216.59 218.076C216.9 218.076 217.175 214.409 217.2 209.928C217.262 198.948 217.624 193.064 218.239 193.064C218.519 193.064 219.173 193.575 219.692 194.2C220.211 194.826 221.105 195.337 221.679 195.337C223.625 195.337 222.741 191.882 220.071 189.051C218.612 187.504 217.418 185.898 217.418 185.482C217.418 184.428 219.955 184.535 221.056 185.636C221.763 186.343 221.965 186.237 221.965 185.157C221.965 184.393 220.829 182.696 219.439 181.386C217.891 179.925 216.743 177.985 216.472 176.37C216.229 174.921 215.795 173.139 215.506 172.409C214.52 169.915 216.279 171.167 219.295 175.105C221.542 178.039 222.376 178.702 222.573 177.709C223.001 175.549 221.364 171.592 218.95 168.949L216.702 166.487L219.144 164.98C220.487 164.15 222.354 163.271 223.292 163.026C225.281 162.507 225.504 161.586 223.798 160.932C221.949 160.222 218.995 160.385 217.303 161.291C216.461 161.742 215.606 161.944 215.402 161.74C214.878 161.216 217.08 157.148 218.546 155.931C219.222 155.37 220.109 154.286 220.518 153.523C221.151 152.34 220.965 152.134 219.264 152.134C217.263 152.134 212.741 155.889 211.988 158.176C211.703 159.041 211.16 158.831 209.566 157.236C207.008 154.679 204.261 153.943 201.673 155.122L199.683 156.029L203.649 158.198C207.16 160.118 210.499 163.071 210.571 164.319C210.585 164.56 209.586 164.608 208.351 164.427C205.847 164.06 200.215 166.461 198.1 168.797C196.701 170.343 195.524 177.167 196.665 177.118C197.032 177.102 198.258 175.749 199.391 174.111C201.28 171.38 206.575 167.293 208.225 167.293C208.606 167.293 208.271 168.559 207.483 170.106C205.889 173.232 205.702 175.571 206.753 179.236C207.188 180.752 207.188 181.694 206.753 181.694C206.366 181.694 206.048 181.199 206.048 180.593C206.048 178.591 204.328 175.671 202.407 174.412L200.514 173.172L201.002 175.728C201.271 177.133 201.705 179.229 201.966 180.385L202.442 182.487L200.233 181.219C197.377 179.58 193.276 180.291 190.881 182.84C188.726 185.134 189.289 185.926 192.324 184.868C193.581 184.43 195.544 184.333 196.721 184.652L198.848 185.227L196.017 186.169C192.628 187.296 190.131 190.221 190.131 193.066V195.137L192.974 192.454L195.816 189.77L196.279 193.88C196.755 198.116 198.517 203.147 199.802 203.941C200.221 204.2 200.732 202.468 201.004 199.869C201.506 195.06 203.239 190.032 204.394 190.032C207.015 190.032 208.878 212.252 206.427 214.286C205.802 214.805 205.29 215.853 205.29 216.615ZM213.968 176.094C213.685 174.38 213.282 172.69 213.073 172.339C212.659 171.642 209.569 176.533 208.766 179.157C208.286 180.725 208.39 180.758 211.375 180L214.484 179.211L213.968 176.094ZM213.895 190.755C214.252 191.111 214.173 194.785 213.721 198.948C213.269 203.099 212.592 207.31 212.217 208.306C211.641 209.834 211.449 209.405 210.994 205.57C210.37 200.306 208.541 192.616 207.413 190.507C206.684 189.145 206.845 189.086 209.942 189.581C211.761 189.872 213.54 190.4 213.895 190.755Z" fill="#159888"/>
<path d="M1474.68 151.653C1469.82 156.047 1470.13 161.288 1475.3 162.284C1482.23 163.619 1485.25 163.649 1491.28 162.444C1496.61 161.378 1496.84 161.015 1494.44 157.583C1492.33 154.571 1492.03 146.326 1492.85 113.663C1493.79 76.6967 1492.82 61.625 1488.74 49.2884C1488.07 47.2439 1491.75 50.1713 1496.91 55.7937L1506.31 66.0163L1506.37 60.2943C1506.43 54.3642 1496.51 37.2073 1493.02 37.2073C1489.25 37.2073 1495.27 32.1998 1503.17 28.7652C1513.29 24.3623 1513.34 24.3172 1510.09 22.2655C1506.44 19.9531 1497.74 20.0245 1493.3 22.4033C1487.2 25.6666 1488.89 18.3855 1496.21 9.83114C1499.79 5.65116 1502.71 1.73687 1502.71 1.13268C1502.71 0.52848 1500.54 0.0341797 1497.88 0.0341797C1492.21 0.0341797 1480.42 10.8883 1480.4 16.1115C1480.4 18.8775 1479.4 18.4091 1475.29 13.7165C1469.33 6.89987 1463.89 4.85992 1456.21 6.54858C1449.04 8.12138 1449.2 10.1447 1456.71 13.1585C1464.09 16.1203 1470.17 20.632 1474.94 26.6967L1478.54 31.2762L1471.58 30.4388C1466.17 29.7883 1462.4 30.8919 1454.71 35.3835C1443.54 41.9015 1438.2 50.9216 1440.84 58.8175C1442.31 63.2343 1442.53 63.108 1449.31 54.0292C1453.14 48.9006 1459.58 43.0175 1463.62 40.9557C1472.1 36.631 1474.18 36.2578 1471.59 39.5305C1467.8 44.3028 1465.44 55.4717 1466.65 62.9789C1467.32 67.205 1468.39 70.6509 1469.03 70.6384C1469.67 70.6249 1472.61 65.5643 1475.58 59.3924C1478.54 53.2205 1481.65 48.8586 1482.49 49.6993C1485.87 53.0758 1487.43 76.2311 1485.79 98.6868C1483.72 127.066 1479.47 147.32 1474.68 151.653Z" fill="#159888"/>
<path d="M1046.43 285.664C1043.76 288.078 1043.93 290.957 1046.77 291.504C1050.58 292.238 1052.23 292.255 1055.55 291.592C1058.47 291.007 1058.6 290.807 1057.28 288.922C1056.12 287.267 1055.96 282.738 1056.41 264.793C1056.92 244.485 1056.39 236.205 1054.15 229.427C1053.78 228.304 1055.8 229.912 1058.64 233.001L1063.81 238.617L1063.84 235.474C1063.87 232.216 1058.42 222.79 1056.5 222.79C1054.43 222.79 1057.74 220.039 1062.08 218.152C1067.64 215.733 1067.66 215.709 1065.88 214.581C1063.87 213.311 1059.1 213.35 1056.65 214.657C1053.31 216.45 1054.23 212.45 1058.25 207.75C1060.22 205.454 1061.83 203.303 1061.83 202.971C1061.83 202.639 1060.63 202.368 1059.17 202.368C1056.06 202.368 1049.58 208.331 1049.57 211.2C1049.57 212.72 1049.02 212.463 1046.76 209.885C1043.49 206.14 1040.5 205.019 1036.28 205.947C1032.34 206.811 1032.43 207.922 1036.56 209.578C1040.61 211.205 1043.95 213.684 1046.57 217.016L1048.55 219.532L1044.72 219.072C1041.75 218.714 1039.68 219.321 1035.45 221.788C1029.32 225.369 1026.39 230.324 1027.83 234.662C1028.64 237.089 1028.77 237.019 1032.49 232.032C1034.59 229.214 1038.13 225.982 1040.35 224.849C1045.01 222.473 1046.15 222.268 1044.73 224.066C1042.65 226.688 1041.35 232.824 1042.01 236.948C1042.38 239.27 1042.97 241.163 1043.32 241.156C1043.67 241.149 1045.29 238.369 1046.92 234.978C1048.55 231.587 1050.26 229.191 1050.72 229.653C1052.57 231.508 1053.43 244.229 1052.53 256.566C1051.39 272.157 1049.06 283.284 1046.43 285.664Z" fill="#159888"/>
<path d="M1079.15 294.134C1081.82 296.548 1081.65 299.427 1078.81 299.974C1075 300.708 1073.35 300.725 1070.03 300.062C1067.11 299.477 1066.98 299.277 1068.3 297.392C1069.46 295.737 1069.62 291.208 1069.17 273.263C1068.66 252.955 1069.19 244.675 1071.43 237.897C1071.8 236.774 1069.78 238.382 1066.94 241.471L1061.77 247.087L1061.74 243.944C1061.71 240.686 1067.16 231.26 1069.08 231.26C1071.15 231.26 1067.84 228.509 1063.5 226.622C1057.94 224.203 1057.91 224.179 1059.7 223.051C1061.71 221.781 1066.48 221.82 1068.92 223.127C1072.27 224.92 1071.35 220.92 1067.33 216.22C1065.36 213.924 1063.75 211.773 1063.75 211.442C1063.75 211.11 1064.95 210.838 1066.41 210.838C1069.52 210.838 1076 216.801 1076.01 219.671C1076.01 221.19 1076.56 220.933 1078.82 218.355C1082.09 214.61 1085.08 213.489 1089.3 214.417C1093.24 215.281 1093.15 216.393 1089.02 218.048C1084.97 219.675 1081.63 222.154 1079.01 225.486L1077.03 228.002L1080.86 227.542C1083.83 227.184 1085.9 227.791 1090.13 230.258C1096.26 233.839 1099.19 238.795 1097.75 243.132C1096.94 245.559 1096.81 245.489 1093.09 240.502C1090.99 237.684 1087.45 234.452 1085.23 233.319C1080.57 230.944 1079.43 230.738 1080.85 232.536C1082.93 235.158 1084.23 241.294 1083.57 245.418C1083.2 247.74 1082.61 249.633 1082.26 249.626C1081.91 249.619 1080.29 246.839 1078.66 243.448C1077.03 240.057 1075.32 237.661 1074.86 238.123C1073.01 239.978 1072.15 252.699 1073.05 265.036C1074.19 280.627 1076.52 291.754 1079.15 294.134Z" fill="#159888"/>
<path fill-rule="evenodd" clip-rule="evenodd" d="M957.762 306.23C954.748 305.185 955.8 303.008 959.319 303.008C965.584 303.008 967.547 298.764 968.394 283.38C969.405 265.045 968.733 262.71 961.177 258.282C954.167 254.173 950.593 253.755 948.324 256.779C947.456 257.935 943.72 259.169 940.022 259.52C936.324 259.871 932.736 260.507 932.048 260.932C929.898 262.261 923.313 258.354 923.301 255.742C923.301 254.374 922.807 253.255 922.216 253.255C918.755 253.255 917.185 240.287 920.323 237.618C920.782 237.227 921.994 235.418 923.017 233.597C924.521 230.919 924.531 229.873 923.07 228.113C921.589 226.329 921.679 225.635 923.567 224.255C924.833 223.329 926.182 220.679 926.563 218.367C928.498 206.647 931.164 204.074 944.139 201.409C946.614 200.9 948.989 199.575 949.415 198.464C949.841 197.354 952.774 196.031 955.931 195.527C959.088 195.022 961.671 194.144 961.671 193.576C961.671 191.424 969.398 184.33 971.283 184.752C972.367 184.996 974.056 184.529 975.037 183.715C976.133 182.806 978.417 182.688 980.972 183.41C983.257 184.056 985.812 184.347 986.651 184.057C987.49 183.768 989.729 186.652 991.626 190.468C995.238 197.727 1000.35 201.058 1005.72 199.652C1007.33 199.233 1008.58 199.602 1008.58 200.492C1008.58 201.365 1010.18 202.08 1012.14 202.08C1014.09 202.08 1015.69 202.719 1015.69 203.501C1015.69 204.283 1016.65 204.923 1017.82 204.923C1018.99 204.923 1019.95 205.562 1019.95 206.344C1019.95 207.126 1020.79 207.766 1021.81 207.766C1023.16 207.766 1023.6 210.102 1023.43 216.286C1023.27 222.017 1023.83 225.336 1025.15 226.425C1026.62 227.646 1026.7 228.52 1025.49 229.981C1024.28 231.444 1024.42 232.731 1026.06 235.242C1028.04 238.269 1028 239.111 1025.52 244.644C1024.02 247.987 1022.8 252.251 1022.8 254.121C1022.8 256.194 1021.97 257.519 1020.66 257.519C1019.49 257.519 1018.53 258.435 1018.53 259.554C1018.53 261.038 1017 261.492 1012.87 261.233C1009.75 261.038 1006.77 260.442 1006.23 259.91C1005.7 259.377 1004.09 258.941 1002.66 258.941C1000.95 258.941 1000.05 257.902 1000.05 255.934C1000.05 253.065 999.892 253.033 996.549 255.223C994.622 256.486 992.208 257.519 991.186 257.519C990.164 257.519 986.943 259.485 984.029 261.887L978.73 266.255V279.564C978.73 296.372 979.783 299.14 987.325 302.158C990.611 303.473 993.05 304.798 992.745 305.103C991.929 305.919 959.846 306.953 957.762 306.23ZM991.357 247.674C990.469 250.352 987.425 254.599 984.592 257.111C981.759 259.622 978.922 261.701 978.287 261.73C976.803 261.799 978.656 248.823 980.453 246.565C981.204 245.622 981.45 244.255 981 243.527C980.033 241.962 984.085 238.234 985.364 239.513C985.847 239.997 985.352 241.527 984.263 242.914C982.463 245.208 982.509 245.259 984.771 243.485C986.622 242.034 987.747 241.94 989.167 243.118C990.216 243.988 991.501 244.274 992.023 243.752C992.545 243.23 992.245 244.995 991.357 247.674ZM981.026 235.175C980.545 234.694 980.152 235.09 980.152 236.055C980.152 237.163 979.103 237.477 977.308 236.907C974.711 236.083 974.465 236.652 974.465 243.487V250.97L978.183 243.51C980.227 239.407 981.507 235.656 981.026 235.175ZM961.672 237.185C961.672 233.589 966.594 234.245 968.666 238.116C969.649 239.954 970.237 242.883 969.972 244.625C969.499 247.734 969.419 247.717 965.581 243.693C963.431 241.439 961.672 238.51 961.672 237.185ZM968.006 254.224C966.822 249.504 960.673 243.304 957.177 243.304C954.62 243.304 954.602 243.526 956.804 247.924C959.736 253.781 966.29 260.382 967.792 258.991C968.421 258.408 968.518 256.263 968.006 254.224ZM952.775 248.789C953.733 247.831 954.904 247.434 955.377 247.907C955.85 248.381 956.02 249.76 955.756 250.974C955.413 252.545 954.665 252.799 953.154 251.855C951.481 250.809 951.401 250.163 952.775 248.789ZM997.21 248.72C997.21 244.968 993.786 246.2 993.203 250.161C992.863 252.465 993.311 253.025 994.98 252.385C996.206 251.914 997.21 250.265 997.21 248.72ZM971.667 236.196C972.424 236.196 973.044 237.156 973.044 238.329C973.044 239.501 972.792 240.461 972.485 240.461C972.178 240.461 971.558 239.501 971.108 238.329C970.658 237.156 970.91 236.196 971.667 236.196Z" fill="#159888"/>
<path d="M558.384 238.738C558.404 240.272 558.57 260.554 558.752 283.811H558.759C558.941 307.067 559.782 326.095 560.627 326.095C561.471 326.095 562.231 305.931 562.314 281.287C562.405 254.559 563.205 235.739 564.297 234.647C566.488 232.456 576.341 238.248 574.763 240.8C574.201 241.711 576.299 242.456 579.426 242.456H585.112L585.49 258.719L585.868 274.982L586.502 259.243C587.116 243.966 588.423 240.693 593.941 240.625C595.73 240.604 596.264 250.061 596.264 281.797C596.264 304.457 596.891 322.365 597.658 321.592C598.425 320.819 599.108 301.234 599.176 278.069C599.328 226.519 599.322 226.613 602.307 228.958C606.428 232.195 616.709 233.363 616.709 230.595C616.709 229.063 618.742 228.195 622.044 228.318C625.621 228.451 627.073 229.317 626.451 230.946C625.94 232.282 624.376 232.936 622.975 232.398C621.573 231.86 620.426 232.231 620.426 233.221C620.426 234.211 622.099 235.021 624.144 235.021C627.751 235.021 627.861 236.26 627.861 276.95C627.861 300.011 628.578 318.437 629.454 317.895C630.33 317.354 631.092 297.138 631.148 272.971C631.208 246.845 631.989 228.291 633.074 227.206C635.312 224.968 645.088 230.852 643.472 233.466C641.752 236.249 663.611 233.523 666.547 230.588C669.657 227.478 667.854 220.152 663.979 220.152C662.515 220.152 661.317 219.315 661.317 218.293C661.317 217.271 659.693 216.435 657.709 216.435C655.725 216.435 653.619 215.655 653.03 214.701C652.441 213.748 649.385 213.041 646.238 213.13C643.092 213.22 639.852 212.217 639.04 210.901C638.021 209.253 635.47 208.902 630.828 209.773C625.739 210.728 623.836 210.362 623.035 208.273C622.452 206.753 619.593 204.987 616.682 204.347C613.771 203.708 610.378 201.965 609.141 200.475C607.866 198.938 605.395 198.239 603.436 198.861C601.536 199.464 599.928 199.274 599.863 198.438C599.797 197.602 599.478 194.221 599.153 190.923C598.4 183.283 601.925 179.981 607.27 183.319C609.395 184.646 611.133 186.792 611.133 188.089C611.133 189.855 613.811 190.152 621.82 189.272C635.273 187.794 638.687 185.033 635.556 178.161C634.314 175.435 632.831 173.672 632.26 174.243C631.689 174.814 628.35 173.667 624.839 171.695C621.328 169.723 615.971 168.11 612.935 168.11C609.9 168.11 607.416 167.363 607.416 166.45C607.416 163.919 601.641 162.256 599.281 164.107C598.133 165.008 593.413 165.719 588.793 165.688C582.645 165.647 578.16 167.064 572.065 170.975C567.485 173.914 563.509 176.443 563.229 176.595C561.384 177.596 565.582 182.453 569.808 184.205C579.462 188.208 585.112 188.844 585.112 185.927C585.112 184.132 586.979 183.281 590.681 183.386C595.424 183.521 595.906 183.96 593.933 186.352C592.077 188.594 592.078 189.317 593.933 189.941C595.211 190.371 596.257 191.965 596.257 193.482C596.257 195.39 595.116 195.878 592.556 195.065C590.521 194.419 587.802 194.556 586.515 195.369C585.228 196.181 580.231 196.938 575.41 197.051C569.069 197.199 564.57 198.692 559.146 202.451C550.584 208.385 549.917 210.982 555.831 215.361L560.013 218.457L554.886 217.407C547.577 215.909 527.487 225.751 527.487 230.83C527.487 233.588 534.892 237.954 541.891 239.323C546.448 240.214 547.932 239.849 547.932 237.837C547.932 236.063 549.674 235.301 553.139 235.561C556.335 235.8 558.361 237.027 558.384 238.738Z" fill="#159888"/>
<path d="M584.991 286.097C584.082 289.143 583.843 294.789 584.459 298.643C586.137 309.134 586.982 307.137 586.804 293.104C586.671 282.718 586.359 281.512 584.991 286.097Z" fill="#159888"/>
<path d="M636.373 230.572C634.754 231.193 633.43 232.518 633.43 233.516C633.43 235.959 637.654 234.429 638.58 231.651C639.033 230.293 638.183 229.877 636.373 230.572Z" fill="#159888"/>
<path d="M605.55 184.838C604.528 184.838 603.691 185.674 603.691 186.696C603.691 187.718 604.528 188.555 605.55 188.555C606.572 188.555 607.408 187.718 607.408 186.696C607.408 185.674 606.572 184.838 605.55 184.838Z" fill="#159888"/>
<path d="M38.7879 141.258C38.8597 152.077 39.4935 161.504 40.1963 162.207C44.1936 166.204 45.5031 160.114 46.5656 132.59C47.1939 116.316 47.8216 102.374 47.9596 101.607C48.5229 98.4881 51.9287 100.482 51.9287 103.931C51.9287 108.761 54.5152 108.668 57.8009 103.72C59.2354 101.559 62.6352 99.547 65.3558 99.2483C71.9692 98.5223 74.2325 96.9302 74.2325 93.0038C74.2325 88.3037 63.4048 76.8534 59.6957 77.6312C56.9986 78.1968 57.0547 77.7701 60.124 74.3786C65.4049 68.543 75.0743 69.628 70.194 75.5084C66.7313 79.6807 72.5676 84.5072 77.7329 81.7428C82.654 79.1092 82.8412 74.1512 78.0666 72.9026C75.1473 72.1392 74.7774 71.1423 76.1116 67.633C77.0166 65.2526 77.7327 58.2637 77.7035 52.1022C77.6509 41.1018 77.5285 40.8392 70.9246 37.5653C64.7162 34.4876 64.1923 33.5882 64.1044 25.8673C64.0123 17.7277 63.8514 17.5034 58.099 17.5034C52.6362 17.5034 44.494 11.7214 44.494 7.84218C44.494 7.04319 46.6189 8.681 49.2159 11.4818C53.3778 15.9703 57.5046 18.1031 57.5046 15.7657C57.5046 7.67267 42.845 -3.10936 38.345 1.67393C36.6287 3.49853 36.6531 4.21983 38.4537 4.88006C42.782 6.46713 40.8074 9.13947 35.3065 9.13947C31.8783 9.13947 28.8282 10.5783 27.1366 12.9933C25.3546 15.5374 23.9993 16.1384 23.1484 14.7617C21.4517 12.0161 17.2287 15.416 15.4948 20.9239C14.7997 23.1316 12.2559 27.8537 9.8419 31.4172C5.8123 37.3658 5.71968 37.99 8.71048 39.0391C10.502 39.6676 11.9679 41.2563 11.9679 42.5696C11.9679 43.8828 13.9654 45.6962 16.4067 46.5993C20.0437 47.9447 20.466 47.7844 18.7459 45.7118C17.5913 44.3207 17.1972 42.6321 17.8698 41.9595C20.1064 39.7228 22.1897 40.6953 22.219 43.9891C22.2428 46.7172 22.5261 46.8008 23.9764 44.5076C24.9274 43.0038 26.3015 42.3693 27.0297 43.0975C29.1129 45.1807 33.336 40.693 33.4015 36.327C33.4697 31.7662 37.4458 25.8673 40.4518 25.8673C41.5809 25.8673 43.3597 27.4647 44.4045 29.417C45.6606 31.764 47.5718 32.6351 50.0458 31.9881C52.8849 31.2457 53.7875 31.9166 53.7875 34.7698C53.7875 37.7493 54.6557 38.3061 57.9695 37.4522C61.6061 36.5151 61.8366 36.7586 59.7379 39.3194C58.1157 41.2986 57.9634 42.6592 59.2733 43.4687C62.021 45.1669 61.7075 48.6567 58.8988 47.6392C57.6209 47.1763 55.1117 48.0726 53.3228 49.631C49.2136 53.2107 48.9993 49.5075 53.0795 45.4274C54.7346 43.7723 55.5709 41.9004 54.938 41.2675C53.5321 39.8616 53.2918 40.1132 48.6139 47.8893L44.8701 54.1128L43.6098 48.3753C42.9168 45.2197 41.5776 42.1606 40.634 41.5774C39.6904 40.9943 38.86 38.2664 38.7876 35.5155C38.6727 31.1164 38.4779 30.9617 37.1696 34.2312C36.1761 36.7139 36.921 40.4039 39.4122 45.3412C42.9794 52.4108 44.4542 65.5586 41.9598 68.053C39.7889 70.2238 38.3887 66.9242 37.4836 57.5052C36.9904 52.3714 35.9349 48.1711 35.1385 48.1711C34.342 48.1711 34.1754 50.053 34.7681 52.3531C35.728 56.0783 35.5059 56.2564 32.7353 53.9841C30.8982 52.4774 29.625 52.2423 29.625 53.4098C29.625 54.4969 30.4615 55.9032 31.4838 56.535C32.5061 57.1668 33.3425 58.6004 33.3425 59.7207C33.3425 60.8411 31.7007 60.2721 29.6943 58.4563C27.6878 56.6405 24.7605 55.6482 23.1891 56.2513C21.6176 56.8543 20.3319 56.5375 20.3319 55.5474C20.3319 52.6218 14.8703 53.4896 11.1915 56.9997C6.41094 61.5611 4.88287 67.7773 7.39051 72.4629C8.93394 75.3463 8.96234 77.0121 7.49363 78.4808C6.37677 79.5977 5.46289 82.1281 5.46289 84.1038C5.46289 88.1315 12.4942 95.1059 14.996 93.5597C17.6219 91.9368 16.8471 89.0614 13.7839 89.0614C11.3061 89.0614 11.333 88.4815 13.9999 84.4115C15.6754 81.854 16.5893 78.0133 16.0306 75.8764C15.1056 72.3391 15.2941 72.245 18.1379 74.8257C22.6115 78.8853 28.3192 89.0614 26.1227 89.0614C25.103 89.0614 23.7518 88.225 23.12 87.2027C22.4881 86.1805 20.557 85.4101 18.8285 85.4908C16.2678 85.6104 16.202 85.8317 18.4733 86.6851C22.7626 88.2969 31.4839 94.7233 31.4839 96.2721C31.4839 97.032 29.8112 99.4492 27.7667 101.644C23.886 105.809 22.6957 113.224 25.908 113.224C26.9302 113.224 27.7667 114.478 27.7667 116.012C27.7667 119.322 32.5418 119.741 34.4829 116.6C37.0891 112.383 38.6555 121.357 38.7879 141.258Z" fill="#159888"/>
<path d="M20.7437 96.496C17.7892 96.496 12.4797 103.61 13.818 105.775C16.1373 109.528 21.2402 106.87 21.8494 101.591C22.1729 98.7889 21.6754 96.496 20.7437 96.496Z" fill="#159888"/>
<path d="M22.9338 48.667C22.3204 49.2805 22.4735 50.8424 23.2742 52.1379C24.4451 54.0321 24.883 54.0341 25.5125 52.1454C26.4109 49.45 24.5973 47.0036 22.9338 48.667Z" fill="#159888"/>
<path fill-rule="evenodd" clip-rule="evenodd" d="M1175.31 285.778C1175.31 285.6 1175.7 284.609 1176.17 283.576C1176.86 282.053 1177.41 281.754 1179.05 281.996C1180.17 282.16 1181.22 282.069 1181.4 281.793C1181.57 281.518 1181.26 279.578 1180.72 277.483C1180.17 275.386 1179.89 272.056 1180.08 270.073C1180.48 265.947 1178.94 259.333 1176.77 255.812C1175.97 254.522 1174.86 252.172 1174.3 250.589C1173.18 247.407 1171.16 244.701 1169.9 244.701C1169.45 244.701 1168.31 245.296 1167.38 246.023C1164.54 248.226 1160.58 248.4 1158.28 246.423C1157.8 246.012 1160.04 244.148 1161.44 243.79C1162.34 243.562 1162.04 243.41 1160.59 243.357C1157.83 243.254 1156.47 241.756 1157.13 239.561C1157.85 237.211 1160.34 234.708 1161.96 234.708C1163.06 234.708 1163.18 234.501 1162.54 233.732C1161.93 232.999 1161.96 232.575 1162.63 232.025C1163.38 231.416 1169.26 230.607 1173.99 230.462C1174.63 230.442 1175.35 229.666 1175.58 228.738C1175.92 227.389 1176.37 227.119 1177.8 227.394C1178.85 227.595 1179.6 227.406 1179.6 226.94C1179.6 226.502 1179.84 226.203 1180.13 226.276C1180.43 226.349 1182.43 226.139 1184.59 225.81C1189.9 225 1198.06 225.141 1200.52 226.085C1201.63 226.509 1203.3 226.857 1204.23 226.857C1205.34 226.857 1206.6 227.732 1207.84 229.361C1209.24 231.192 1210.48 231.982 1212.47 232.3C1215.38 232.765 1218.14 234.815 1218.14 236.515C1218.14 237.085 1218.77 237.942 1219.53 238.42C1220.46 238.999 1220.7 239.56 1220.25 240.098C1219.78 240.671 1220.74 241.186 1223.56 241.862L1227.54 242.818L1225.87 244.15C1221.67 247.507 1220.91 247.861 1220.23 246.786C1219.7 245.952 1219.59 245.985 1219.58 246.973C1219.56 248.743 1217.3 249.156 1214.35 247.925C1212.93 247.33 1210.96 246.843 1209.99 246.843C1208.23 246.843 1200.79 248.592 1199.71 249.262C1199.4 249.455 1197.26 252.384 1194.96 255.771C1192.49 259.398 1189.54 262.778 1187.77 263.996C1185.84 265.328 1184.36 267.092 1183.61 268.958C1182.18 272.523 1182.18 272.797 1183.53 272.278C1184.38 271.951 1184.51 272.245 1184.16 273.658C1183.57 276.023 1186.48 282.188 1188.66 283.182C1189.56 283.593 1190.3 284.418 1190.3 285.015C1190.3 285.918 1189.04 286.101 1182.81 286.101C1178.69 286.101 1175.31 285.956 1175.31 285.778ZM1183.6 260.461C1184.95 261.998 1184.84 263.524 1183.29 264.934C1181.51 266.542 1181.02 266.421 1181.02 264.373C1181.02 263.414 1180.7 262.432 1180.31 262.189C1179.92 261.947 1179.6 261.019 1179.6 260.128C1179.6 259.237 1178.66 257.088 1177.52 255.352C1176.38 253.616 1175.08 250.83 1174.64 249.161C1173.7 245.622 1171.49 243.886 1167.19 243.304L1164.25 242.906L1167.82 241.62C1169.78 240.913 1171.95 240.029 1172.64 239.656C1173.63 239.12 1173.88 239.261 1173.88 240.336C1173.88 241.083 1174.37 241.879 1174.96 242.107C1175.55 242.334 1176.41 243.332 1176.86 244.324C1177.31 245.317 1177.94 246.129 1178.26 246.129C1179.19 246.129 1178.02 243.717 1176.61 242.698C1175.3 241.753 1174.73 239.259 1176.01 240.049C1176.39 240.285 1177.57 239.909 1178.63 239.214C1180.04 238.291 1180.64 238.187 1180.85 238.827C1181.07 239.488 1181.51 239.443 1182.65 238.644C1184.22 237.545 1190.78 237.803 1193.24 239.06C1193.87 239.384 1196.6 239.725 1199.3 239.818C1204.09 239.984 1205.99 240.546 1207.99 242.382C1208.53 242.872 1209.45 243.274 1210.04 243.274C1211.58 243.274 1210.86 244.814 1209 245.502C1207.78 245.956 1207.43 245.819 1207.43 244.876C1207.43 243.906 1207.22 243.981 1206.32 245.256C1205.6 246.288 1204.47 246.843 1203.1 246.843C1200.55 246.843 1196.19 249.514 1195.56 251.467C1194.92 253.432 1189.62 260.336 1188.15 261.124C1187.21 261.628 1186.75 261.372 1186.12 259.985C1185.67 259.001 1185.31 257.933 1185.31 257.61C1185.31 256.397 1191.94 247.163 1193.41 246.333C1194.69 245.609 1194.74 245.462 1193.69 245.44C1192.36 245.413 1189.59 247.802 1189.59 248.984C1189.59 249.377 1189.27 249.698 1188.87 249.698C1187.59 249.698 1188.13 246.956 1189.95 244.277C1190.93 242.83 1191.72 241.29 1191.7 240.854C1191.69 240.418 1191.19 240.945 1190.61 242.025C1189.21 244.6 1188.34 244.504 1187.61 241.697C1187.16 239.98 1187.04 240.829 1187.1 245.088C1187.19 251.588 1186.61 253.891 1184.32 256.044L1182.7 257.568L1181.96 254.37C1181.35 251.694 1181.45 250.674 1182.59 248.132C1183.63 245.808 1183.77 244.753 1183.2 243.648C1182.48 242.278 1182.46 242.286 1182.85 243.801C1183.11 244.821 1182.6 246.498 1181.43 248.44C1180.43 250.113 1179.61 251.027 1179.6 250.471C1179.6 249.915 1179.45 249.609 1179.26 249.792C1178.8 250.254 1182.39 259.083 1183.6 260.461ZM1178.22 247.854C1178.26 247.022 1178.43 246.853 1178.66 247.423C1178.86 247.938 1178.84 248.554 1178.6 248.791C1178.36 249.028 1178.19 248.606 1178.22 247.854ZM1196.81 244.291C1195.96 243.295 1195.96 243.031 1196.81 242.496C1197.35 242.15 1198.28 241.86 1198.87 241.849C1199.46 241.839 1201.14 241.631 1202.61 241.388C1204.99 240.996 1205.29 241.113 1205.29 242.424C1205.29 244.282 1204.73 244.622 1200.89 245.085C1198.57 245.365 1197.55 245.167 1196.81 244.291Z" fill="#159888"/>
<path d="M822.639 278.142C821.826 280.445 821.161 283.39 821.161 284.688C821.161 286.686 821.654 287.046 824.39 287.046L827.618 287.046L827.556 272.891C827.489 257.33 828.261 251.166 831.159 244.149C833.934 237.431 833.507 235.927 830.599 242.173C829.244 245.083 827.607 250.335 826.96 253.845C826.314 257.354 825.466 260.226 825.077 260.226C824.688 260.226 823.638 259.11 822.744 257.745C821.22 255.419 821.244 255.019 823.127 251.328C824.231 249.163 825.135 246.535 825.135 245.487C825.135 244.439 825.805 241.977 826.625 240.016C827.444 238.055 828.083 235.877 828.045 235.176C828.006 234.476 827.642 234.751 827.236 235.787C826.588 237.437 826.227 237.214 824.325 233.992C823.132 231.968 822.103 229.332 822.039 228.134C821.944 226.336 821.842 226.274 821.455 227.774C821.196 228.774 821.88 231.679 822.975 234.231C824.777 238.433 824.942 241.768 823.565 246.149C823.291 247.021 822.267 246.418 820.547 244.374C818.543 241.992 817.767 239.674 817.178 234.306C816.757 230.471 816.14 227.06 815.807 226.727C815.474 226.394 815.201 226.698 815.201 227.402C815.201 228.415 814.847 228.398 813.506 227.319C812.268 226.323 812.421 226.955 814.074 229.665C815.319 231.705 816.18 234.387 815.989 235.625C815.663 237.732 815.532 237.674 813.942 234.718C813.008 232.981 811.31 231.264 810.171 230.902C807.073 229.919 806.569 231.208 809.6 232.36C811.042 232.909 812.221 233.746 812.221 234.221C812.221 234.696 814.009 237.851 816.195 241.232C820.411 247.756 820.799 249.245 819.105 252.409C818.206 254.089 817.801 254.194 816.471 253.09C814.069 251.097 807.624 242.094 806.848 239.649C805.939 236.785 800.347 233.406 796.518 233.406C794.839 233.406 793.215 233.001 792.909 232.506C792.603 232.011 791.571 231.809 790.615 232.057C789.66 232.305 788.001 231.864 786.929 231.078C785.271 229.861 785.178 229.409 786.305 228.05C787.035 227.172 788.1 226.453 788.673 226.453C789.246 226.453 790.574 225.671 791.624 224.714C793.313 223.177 796.266 222.478 812.221 219.839C814.133 219.523 816.235 218.833 816.892 218.306C818.241 217.224 822.276 218.204 823.381 219.882C823.832 220.567 824.117 220.305 824.126 219.195C824.14 217.539 824.312 217.52 826.349 218.946C828.909 220.74 833.081 221.007 833.081 219.378C833.081 218.576 833.444 218.564 834.372 219.334C835.082 219.924 837.551 220.707 839.858 221.076C845.07 221.91 846.105 223.302 842.106 224.102L839.079 224.707L841.295 226.419C844.448 228.855 849.345 229.611 851.546 228.001C852.971 226.959 853.118 226.364 852.216 225.278C851.308 224.184 851.494 223.618 853.09 222.621C854.655 221.644 854.965 220.748 854.452 218.689C853.575 215.174 851.12 212.546 848.714 212.546C847.378 212.546 846.957 212.072 847.362 211.019C848.087 209.128 847.217 208.838 838.681 208.127C831.324 207.513 830.101 207.108 830.101 205.286C830.101 204.635 828.872 204.042 827.37 203.968C825.867 203.894 822.068 203.41 818.926 202.893C815.785 202.375 813.215 202.212 813.214 202.531C813.214 202.849 810.919 203.098 808.115 203.085C805.31 203.071 801.399 203.623 799.423 204.311C797.448 205 795.171 205.57 794.363 205.578C793.556 205.586 791.26 207.381 789.263 209.566C787.052 211.985 784.742 213.539 783.359 213.539C780.599 213.539 777.455 216.201 777.455 218.538C777.455 219.48 776.789 220.802 775.976 221.477C775.162 222.152 774.711 223.052 774.974 223.476C775.555 224.417 769.426 227.438 766.875 227.468C765.808 227.481 767.268 228.79 770.356 230.589C774.378 232.934 775.862 233.382 776.451 232.429C777.475 230.773 784.566 230.545 785.128 232.15C785.522 233.278 783.813 234.319 779.13 235.802C778.139 236.115 777.604 236.818 777.941 237.363C778.311 237.961 780.566 237.333 783.637 235.777C788.246 233.441 789.1 233.309 792.773 234.366C795.001 235.007 797.942 235.836 799.308 236.208C800.98 236.663 803.646 239.687 807.466 245.462C810.586 250.18 814.958 255.48 817.18 257.24C819.403 259 821.878 261.711 822.681 263.264C824.342 266.475 824.642 270.586 823.148 269.663C821.887 268.884 821.883 269.782 823.135 272.122C823.822 273.405 823.673 275.211 822.639 278.142Z" fill="#159888"/>
<path d="M835.533 228.743C834.104 230.368 833.129 232.646 833.197 234.207C833.286 236.276 833.421 236.433 833.796 234.896C834.062 233.803 834.905 232.203 835.669 231.339C836.433 230.475 836.76 229.469 836.395 229.104C836.029 228.738 836.252 228.439 836.889 228.439C837.526 228.439 838.034 227.881 838.017 227.198C837.999 226.515 836.882 227.21 835.533 228.743Z" fill="#159888"/>
<path d="M830.332 224.868C829.113 225.909 828.143 227.697 828.178 228.842C828.235 230.74 828.326 230.709 829.211 228.493C829.745 227.157 830.714 225.369 831.366 224.52C832.028 223.657 831.572 223.811 830.332 224.868Z" fill="#159888"/>
<path d="M796.412 228.13C797.457 227.856 798.551 228.018 798.842 228.489C799.427 229.435 801.802 228.772 804.609 226.879C806.38 225.685 806.38 225.632 804.609 225.115C802.615 224.533 798.118 224.196 794.555 224.361C792.566 224.453 792.423 224.724 793.398 226.546C794.131 227.915 795.162 228.457 796.412 228.13Z" fill="#159888"/>
<path d="M816.852 222.231C816.577 221.548 816.351 222.107 816.351 223.473C816.351 224.839 816.577 225.397 816.852 224.714C817.128 224.032 817.128 222.914 816.852 222.231Z" fill="#159888"/>
<path d="M332.124 258.715C331.311 261.018 330.647 263.963 330.647 265.26C330.647 267.259 331.139 267.619 333.875 267.618L337.104 267.618L337.042 253.463C336.974 237.903 337.747 231.739 340.645 224.721C343.419 218.003 342.992 216.499 340.084 222.746C338.73 225.655 337.092 230.908 336.446 234.417C335.799 237.927 334.952 240.799 334.562 240.799C334.173 240.799 333.124 239.682 332.229 238.318C330.705 235.991 330.729 235.591 332.612 231.901C333.716 229.736 334.62 227.107 334.62 226.06C334.62 225.012 335.29 222.55 336.11 220.589C336.929 218.627 337.569 216.449 337.53 215.749C337.492 215.048 337.128 215.323 336.721 216.36C336.073 218.01 335.712 217.787 333.811 214.564C332.617 212.541 331.588 209.905 331.525 208.707C331.43 206.909 331.328 206.846 330.94 208.347C330.682 209.346 331.366 212.252 332.46 214.803C334.263 219.006 334.428 222.341 333.051 226.721C332.777 227.593 331.752 226.991 330.032 224.947C328.028 222.565 327.252 220.247 326.663 214.879C326.242 211.043 325.625 207.633 325.292 207.3C324.959 206.967 324.687 207.271 324.687 207.975C324.687 208.988 324.332 208.97 322.992 207.892C321.753 206.896 321.906 207.527 323.559 210.238C324.804 212.278 325.666 214.96 325.474 216.198C325.149 218.305 325.018 218.247 323.427 215.291C322.493 213.554 320.796 211.837 319.656 211.475C316.558 210.492 316.054 211.781 319.086 212.933C320.527 213.481 321.707 214.318 321.707 214.794C321.707 215.269 323.495 218.424 325.68 221.805C329.896 228.329 330.284 229.817 328.591 232.981C327.691 234.662 327.286 234.766 325.956 233.662C323.555 231.669 317.109 222.666 316.333 220.221C315.424 217.358 309.833 213.979 306.003 213.979C304.324 213.979 302.7 213.574 302.394 213.079C302.088 212.584 301.056 212.382 300.101 212.63C299.145 212.878 297.486 212.437 296.414 211.65C294.756 210.434 294.663 209.982 295.791 208.623C296.52 207.744 297.585 207.025 298.158 207.025C298.731 207.025 300.059 206.243 301.109 205.287C302.798 203.749 305.751 203.05 321.707 200.412C323.619 200.095 325.721 199.406 326.377 198.879C327.727 197.797 331.761 198.776 332.866 200.454C333.318 201.14 333.602 200.877 333.611 199.767C333.625 198.111 333.797 198.092 335.834 199.519C338.394 201.312 342.567 201.579 342.567 199.95C342.567 199.148 342.929 199.136 343.858 199.907C344.568 200.496 347.036 201.28 349.343 201.649C354.556 202.483 355.59 203.874 351.591 204.674L348.565 205.279L350.781 206.992C353.933 209.428 358.83 210.183 361.032 208.574C362.457 207.532 362.603 206.937 361.701 205.85C360.793 204.756 360.979 204.191 362.575 203.194C364.141 202.216 364.451 201.321 363.937 199.262C363.06 195.746 360.606 193.119 358.2 193.119C356.863 193.119 356.443 192.644 356.847 191.591C357.572 189.701 356.703 189.411 348.166 188.699C340.81 188.086 339.587 187.681 339.587 185.859C339.587 185.208 338.357 184.615 336.855 184.541C335.353 184.466 331.553 183.982 328.412 183.465C325.27 182.948 322.7 182.785 322.7 183.103C322.7 183.422 320.405 183.671 317.6 183.657C314.796 183.644 310.884 184.196 308.909 184.884C306.933 185.572 304.656 186.143 303.848 186.15C303.041 186.159 300.746 187.953 298.748 190.139C296.538 192.557 294.227 194.112 292.845 194.112C290.084 194.112 286.94 196.774 286.94 199.111C286.94 200.052 286.274 201.375 285.461 202.05C284.648 202.725 284.197 203.624 284.459 204.049C285.04 204.989 278.911 208.01 276.36 208.041C275.294 208.053 276.753 209.362 279.841 211.162C283.864 213.506 285.348 213.954 285.937 213.001C286.96 211.346 294.052 211.118 294.613 212.723C295.008 213.85 293.298 214.891 288.615 216.374C287.625 216.688 287.09 217.39 287.426 217.935C287.796 218.534 290.051 217.906 293.123 216.349C297.732 214.014 298.585 213.882 302.258 214.939C304.487 215.58 307.428 216.408 308.793 216.78C310.465 217.235 313.131 220.259 316.951 226.034C320.072 230.752 324.443 236.053 326.666 237.813C328.888 239.573 331.364 242.284 332.167 243.836C333.827 247.047 334.127 251.158 332.633 250.235C331.373 249.456 331.368 250.354 332.621 252.695C333.307 253.978 333.158 255.784 332.124 258.715Z" fill="#159888"/>
<path d="M345.019 209.316C343.589 210.94 342.615 213.219 342.682 214.779C342.771 216.849 342.907 217.005 343.281 215.469C343.547 214.376 344.39 212.775 345.155 211.911C345.919 211.048 346.245 210.042 345.88 209.676C345.515 209.311 345.737 209.012 346.374 209.012C347.012 209.012 347.519 208.453 347.502 207.77C347.485 207.087 346.367 207.783 345.019 209.316Z" fill="#159888"/>
<path d="M339.818 205.441C338.598 206.482 337.629 208.27 337.663 209.414C337.72 211.312 337.811 211.282 338.696 209.066C339.23 207.729 340.2 205.941 340.851 205.092C341.513 204.23 341.057 204.383 339.818 205.441Z" fill="#159888"/>
<path d="M305.897 208.702C306.943 208.429 308.036 208.591 308.328 209.062C308.912 210.008 311.288 209.344 314.095 207.451C315.865 206.257 315.865 206.205 314.095 205.688C312.1 205.106 307.604 204.768 304.04 204.934C302.052 205.026 301.908 205.297 302.883 207.119C303.616 208.488 304.647 209.029 305.897 208.702Z" fill="#159888"/>
<path d="M326.338 202.804C326.062 202.121 325.837 202.68 325.837 204.045C325.837 205.411 326.062 205.97 326.338 205.287C326.613 204.604 326.613 203.487 326.338 202.804Z" fill="#159888"/>
<path d="M1219.79 258.715C1218.98 261.018 1218.31 263.963 1218.31 265.26C1218.31 267.259 1218.81 267.619 1221.54 267.618L1224.77 267.618L1224.71 253.463C1224.64 237.903 1225.41 231.739 1228.31 224.721C1231.09 218.003 1230.66 216.499 1227.75 222.746C1226.4 225.655 1224.76 230.908 1224.11 234.417C1223.47 237.927 1222.62 240.799 1222.23 240.799C1221.84 240.799 1220.79 239.682 1219.9 238.318C1218.37 235.991 1218.4 235.591 1220.28 231.901C1221.38 229.736 1222.29 227.107 1222.29 226.06C1222.29 225.012 1222.96 222.55 1223.78 220.589C1224.6 218.627 1225.24 216.449 1225.2 215.749C1225.16 215.048 1224.8 215.323 1224.39 216.36C1223.74 218.01 1223.38 217.787 1221.48 214.564C1220.28 212.541 1219.26 209.905 1219.19 208.707C1219.1 206.909 1219 206.846 1218.61 208.347C1218.35 209.346 1219.03 212.252 1220.13 214.803C1221.93 219.006 1222.1 222.341 1220.72 226.721C1220.44 227.593 1219.42 226.991 1217.7 224.947C1215.7 222.565 1214.92 220.247 1214.33 214.879C1213.91 211.043 1213.29 207.633 1212.96 207.3C1212.63 206.967 1212.35 207.271 1212.35 207.975C1212.35 208.988 1212 208.97 1210.66 207.892C1209.42 206.896 1209.57 207.527 1211.23 210.238C1212.47 212.278 1213.33 214.96 1213.14 216.198C1212.82 218.305 1212.69 218.247 1211.1 215.291C1210.16 213.554 1208.46 211.837 1207.32 211.475C1204.23 210.492 1203.72 211.781 1206.75 212.933C1208.19 213.481 1209.37 214.318 1209.37 214.794C1209.37 215.269 1211.16 218.424 1213.35 221.805C1217.56 228.329 1217.95 229.817 1216.26 232.981C1215.36 234.662 1214.95 234.766 1213.62 233.662C1211.22 231.669 1204.78 222.666 1204 220.221C1203.09 217.358 1197.5 213.979 1193.67 213.979C1191.99 213.979 1190.37 213.574 1190.06 213.079C1189.76 212.584 1188.72 212.382 1187.77 212.63C1186.81 212.878 1185.15 212.437 1184.08 211.65C1182.42 210.434 1182.33 209.982 1183.46 208.623C1184.19 207.744 1185.25 207.025 1185.83 207.025C1186.4 207.025 1187.73 206.243 1188.78 205.287C1190.47 203.749 1193.42 203.05 1209.37 200.412C1211.29 200.095 1213.39 199.406 1214.04 198.879C1215.39 197.797 1219.43 198.776 1220.53 200.454C1220.99 201.14 1221.27 200.877 1221.28 199.767C1221.29 198.111 1221.46 198.092 1223.5 199.519C1226.06 201.312 1230.23 201.579 1230.23 199.95C1230.23 199.148 1230.6 199.136 1231.53 199.907C1232.24 200.496 1234.7 201.28 1237.01 201.649C1242.22 202.483 1243.26 203.874 1239.26 204.674L1236.23 205.279L1238.45 206.992C1241.6 209.428 1246.5 210.183 1248.7 208.574C1250.12 207.532 1250.27 206.937 1249.37 205.85C1248.46 204.756 1248.65 204.191 1250.24 203.194C1251.81 202.216 1252.12 201.321 1251.6 199.262C1250.73 195.746 1248.27 193.119 1245.87 193.119C1244.53 193.119 1244.11 192.644 1244.51 191.591C1245.24 189.701 1244.37 189.411 1235.83 188.699C1228.48 188.086 1227.25 187.681 1227.25 185.859C1227.25 185.208 1226.02 184.615 1224.52 184.541C1223.02 184.466 1219.22 183.982 1216.08 183.465C1212.94 182.948 1210.37 182.785 1210.37 183.103C1210.37 183.422 1208.07 183.671 1205.27 183.657C1202.46 183.644 1198.55 184.196 1196.58 184.884C1194.6 185.572 1192.32 186.143 1191.52 186.15C1190.71 186.159 1188.41 187.953 1186.42 190.139C1184.21 192.557 1181.89 194.112 1180.51 194.112C1177.75 194.112 1174.61 196.774 1174.61 199.111C1174.61 200.052 1173.94 201.375 1173.13 202.05C1172.32 202.725 1171.86 203.624 1172.13 204.049C1172.71 204.989 1166.58 208.01 1164.03 208.041C1162.96 208.053 1164.42 209.362 1167.51 211.162C1171.53 213.506 1173.02 213.954 1173.6 213.001C1174.63 211.346 1181.72 211.118 1182.28 212.723C1182.68 213.85 1180.97 214.891 1176.28 216.374C1175.29 216.688 1174.76 217.39 1175.09 217.935C1175.46 218.534 1177.72 217.906 1180.79 216.349C1185.4 214.014 1186.25 213.882 1189.93 214.939C1192.15 215.58 1195.1 216.408 1196.46 216.78C1198.13 217.235 1200.8 220.259 1204.62 226.034C1207.74 230.752 1212.11 236.053 1214.33 237.813C1216.56 239.573 1219.03 242.284 1219.83 243.836C1221.49 247.047 1221.79 251.158 1220.3 250.235C1219.04 249.456 1219.04 250.354 1220.29 252.695C1220.97 253.978 1220.83 255.784 1219.79 258.715Z" fill="#159888"/>
<path d="M1232.69 209.316C1231.26 210.94 1230.28 213.219 1230.35 214.779C1230.44 216.849 1230.57 217.005 1230.95 215.469C1231.21 214.376 1232.06 212.775 1232.82 211.911C1233.59 211.048 1233.91 210.042 1233.55 209.676C1233.18 209.311 1233.4 209.012 1234.04 209.012C1234.68 209.012 1235.19 208.453 1235.17 207.77C1235.15 207.087 1234.03 207.783 1232.69 209.316Z" fill="#159888"/>
<path d="M1227.49 205.441C1226.27 206.482 1225.3 208.27 1225.33 209.414C1225.39 211.312 1225.48 211.282 1226.36 209.066C1226.9 207.729 1227.87 205.941 1228.52 205.092C1229.18 204.23 1228.73 204.383 1227.49 205.441Z" fill="#159888"/>
<path d="M1193.57 208.702C1194.61 208.429 1195.7 208.591 1196 209.062C1196.58 210.008 1198.96 209.344 1201.76 207.451C1203.53 206.257 1203.53 206.205 1201.76 205.688C1199.77 205.106 1195.27 204.768 1191.71 204.934C1189.72 205.026 1189.58 205.297 1190.55 207.119C1191.28 208.488 1192.31 209.029 1193.57 208.702Z" fill="#159888"/>
<path d="M1214.01 202.804C1213.73 202.121 1213.5 202.68 1213.5 204.045C1213.5 205.411 1213.73 205.97 1214.01 205.287C1214.28 204.604 1214.28 203.487 1214.01 202.804Z" fill="#159888"/>
</svg>
